<?xml version="1.0" standalone="no"?>
<!DOCTYPE svg PUBLIC "-//W3C//DTD SVG 20010904//EN"
 "http://www.w3.org/TR/2001/REC-SVG-20010904/DTD/svg10.dtd">
<svg version="1.0" xmlns="http://www.w3.org/2000/svg"
 width="1528.000000pt" height="1528.000000pt" viewBox="0 0 1528.000000 1528.000000"
 preserveAspectRatio="xMidYMid meet">
<metadata>
Created by potrace 1.11, written by Peter Selinger 2001-2013
</metadata>
<g transform="translate(0.000000,1528.000000) scale(0.100000,-0.100000)"
fill="#000000" stroke="none">
<path d="M8153 14813 c0 -6 5 -11 11 -10 6 1 10 -4 8 -11 -1 -8 2 -11 7 -8 5
4 11 0 14 -6 3 -10 7 -10 20 1 10 8 17 9 17 3 0 -14 -20 -26 -50 -29 -20 -3
-22 -1 -10 7 12 9 12 10 -5 8 -13 -2 -19 2 -17 11 3 12 1 12 -13 1 -9 -7 -14
-18 -11 -25 2 -6 -2 -12 -9 -12 -8 0 -12 9 -9 26 3 19 2 22 -5 11 -5 -8 -7
-18 -4 -23 3 -5 -4 -6 -15 -3 -11 4 -23 2 -27 -3 -4 -7 1 -8 12 -4 17 6 17 5
1 -12 -10 -11 -30 -20 -45 -21 -16 -1 -39 -7 -53 -13 l-25 -11 28 4 c25 3 27
2 15 -11 -8 -8 -24 -15 -36 -16 -11 0 -18 -5 -15 -11 4 -5 -1 -7 -10 -3 -10 3
-17 2 -17 -4 0 -6 -4 -8 -8 -5 -4 2 -14 0 -22 -6 -12 -8 -12 -9 3 -4 10 3 15
2 12 -3 -5 -9 12 -26 27 -26 20 0 15 -13 -6 -17 -14 -3 -24 -2 -21 1 2 4 0 13
-5 21 -7 11 -14 11 -32 3 -16 -7 -30 -8 -42 -1 -13 7 -23 5 -37 -8 -16 -14
-22 -15 -32 -4 -8 9 -9 11 0 6 6 -3 14 -2 17 3 4 5 -2 8 -11 6 -10 -2 -22 -4
-27 -4 -5 -1 -2 -9 5 -18 8 -10 9 -14 2 -10 -6 4 -15 2 -18 -4 -4 -5 -13 -8
-19 -6 -7 3 -13 -1 -13 -9 0 -7 3 -11 7 -9 3 2 6 -5 6 -15 0 -10 -5 -16 -10
-13 -5 4 -7 -1 -3 -10 4 -10 2 -16 -6 -14 -7 1 -11 -4 -9 -10 3 -18 -3 -16
-19 4 -9 10 -9 14 -2 10 7 -5 16 1 23 12 10 19 8 19 -20 10 -16 -6 -27 -15
-24 -20 8 -13 -10 -11 -26 4 -12 10 -12 9 -1 -5 7 -9 9 -23 5 -29 -5 -9 -10
-7 -15 7 -6 16 -8 16 -8 2 -1 -24 15 -31 32 -13 23 22 33 18 12 -5 -10 -11
-27 -20 -37 -20 -11 0 -16 -4 -13 -10 3 -5 -1 -10 -10 -10 -11 0 -15 -5 -12
-15 4 -8 1 -17 -5 -21 -7 -5 -8 -2 -3 6 5 8 3 11 -6 8 -8 -3 -13 -12 -11 -22
2 -9 -2 -16 -8 -16 -6 0 -8 6 -5 13 4 6 0 4 -8 -5 -8 -10 -16 -15 -20 -12 -3
3 -8 -4 -12 -15 -7 -24 -16 -26 -34 -8 -10 10 -11 9 -6 -3 3 -10 -4 -25 -18
-39 -22 -20 -25 -20 -31 -5 -4 12 -2 15 9 10 16 -6 16 14 0 26 -6 5 -3 8 7 8
9 0 20 9 23 20 6 18 11 22 31 19 8 -1 33 34 34 46 0 6 -5 3 -10 -5 -7 -11 -10
-11 -10 -2 0 10 -3 10 -14 0 -8 -7 -12 -16 -9 -20 2 -5 -3 -8 -11 -8 -9 0 -16
-4 -16 -9 0 -18 -33 -42 -49 -37 -13 5 -12 3 2 -8 11 -8 14 -17 8 -20 -6 -4
-7 -14 -4 -24 6 -15 5 -15 -11 -3 -9 8 -16 10 -15 5 4 -21 -2 -35 -11 -29 -5
3 -10 0 -10 -9 0 -8 -6 -16 -12 -19 -10 -3 -10 -9 0 -27 8 -12 10 -20 5 -17
-4 3 -15 -2 -23 -11 -13 -14 -12 -15 3 -9 13 5 16 1 15 -18 -1 -14 -7 -25 -13
-25 -6 0 -16 -10 -24 -22 -13 -20 -12 -22 1 -11 8 7 19 9 23 5 5 -4 6 -2 2 3
-3 6 4 12 16 12 20 2 20 1 4 -8 -9 -6 -15 -14 -12 -19 3 -5 0 -12 -6 -16 -8
-4 -9 -3 -5 4 4 7 2 12 -3 12 -6 0 -12 -7 -12 -15 -3 -29 -4 -33 -13 -42 -5
-5 -6 -2 -1 6 6 11 3 13 -13 9 -23 -6 -31 7 -9 15 6 3 3 6 -9 6 -11 1 -29 -8
-40 -20 -14 -15 -15 -20 -4 -17 8 2 15 -4 15 -12 0 -8 -6 -16 -12 -16 -23 -3
-24 -4 -14 -22 7 -14 6 -25 -4 -39 -8 -11 -11 -23 -8 -27 3 -3 1 -6 -4 -6 -6
0 -13 4 -15 9 -1 5 -12 -2 -22 -17 -11 -14 -14 -22 -8 -18 7 4 10 -3 8 -20 -3
-26 -43 -67 -58 -58 -3 2 -10 0 -13 -6 -4 -6 -3 -10 2 -9 29 5 35 -2 15 -20
-12 -10 -19 -21 -16 -24 3 -3 -3 -8 -14 -11 -11 -4 -22 -16 -25 -26 -3 -11
-12 -20 -21 -20 -9 0 -16 -4 -16 -10 0 -5 -4 -10 -9 -10 -6 0 -8 9 -6 19 2 13
-1 18 -9 15 -7 -3 -12 -15 -11 -27 1 -12 -3 -28 -9 -36 -8 -11 -8 -13 2 -7 6
4 12 2 12 -3 0 -6 -5 -11 -11 -11 -5 0 -8 -4 -5 -9 3 -5 -1 -12 -10 -15 -8 -3
-13 -10 -10 -15 3 -5 -4 -7 -16 -5 -13 2 -17 2 -10 -2 17 -8 15 -17 -12 -49
-16 -18 -28 -25 -37 -19 -12 6 -12 5 -1 -8 10 -12 10 -18 -2 -28 -9 -6 -21 -8
-28 -4 -10 5 -10 4 -2 -5 9 -10 8 -20 -3 -42 -8 -16 -17 -29 -19 -29 -3 0 -2
5 2 12 4 7 3 8 -4 4 -6 -4 -8 -14 -5 -22 3 -9 0 -20 -8 -25 -8 -5 -9 -9 -4 -9
6 0 11 -9 12 -21 1 -15 -2 -19 -13 -15 -9 3 -18 6 -20 6 -2 0 -4 5 -4 11 0 5
5 7 12 3 7 -5 8 -3 3 6 -6 10 -11 9 -21 -4 -11 -16 -13 -16 -22 -1 -8 16 -9
16 -15 1 -5 -12 -3 -15 5 -10 7 5 9 2 5 -9 -4 -11 -2 -14 8 -11 18 7 71 -21
56 -30 -6 -4 -11 -3 -11 3 0 6 -11 6 -31 -1 -23 -8 -27 -13 -17 -19 10 -7 10
-9 0 -9 -18 0 -11 -32 13 -53 16 -15 17 -18 3 -13 -12 4 -15 1 -11 -11 4 -9 2
-14 -3 -10 -6 3 -11 -3 -11 -14 -1 -10 3 -19 8 -19 6 0 7 -4 4 -10 -4 -6 4 -9
17 -7 18 1 23 -3 22 -19 0 -11 5 -21 12 -21 6 0 12 11 12 23 0 13 -3 23 -7 22
-9 -2 -57 20 -48 23 23 5 34 2 55 -15 16 -15 19 -22 10 -28 -10 -6 -10 -8 1
-8 10 0 11 -3 2 -13 -8 -10 -7 -17 2 -26 6 -7 8 -12 2 -11 -5 2 -16 2 -24 1
-12 -1 -11 -4 3 -14 16 -12 16 -13 -3 -13 -11 0 -18 2 -16 5 3 2 0 10 -6 18
-6 7 -8 13 -5 13 4 0 2 10 -5 21 -9 17 -8 20 3 14 10 -6 11 -5 1 5 -21 22 -26
4 -14 -51 8 -36 8 -55 1 -64 -8 -10 -8 -15 1 -21 8 -5 9 -3 4 7 -8 12 -6 12 8
0 18 -15 23 -26 7 -16 -14 9 -13 -8 2 -23 9 -9 9 -15 -1 -24 -11 -11 -13 -10
-8 3 3 9 -5 28 -19 44 -28 33 -32 26 -7 -12 17 -25 17 -26 -7 -19 -14 4 -20 4
-14 -1 6 -4 15 -19 19 -33 6 -22 5 -23 -6 -10 -8 8 -13 13 -12 11 5 -8 -37
-32 -46 -27 -5 3 -11 -1 -15 -9 -3 -8 -1 -15 5 -15 6 0 6 -6 0 -17 -5 -10 -10
-21 -10 -25 -4 -24 -15 -39 -26 -34 -14 5 -15 -11 -2 -31 4 -7 -1 -14 -13 -18
-11 -4 -18 -11 -14 -16 3 -6 -3 -13 -15 -16 -19 -5 -26 -15 -22 -36 1 -4 -6
-7 -15 -5 -9 2 -19 -3 -22 -11 -3 -8 0 -11 7 -7 17 11 13 0 -6 -15 -10 -8 -14
-9 -10 -2 4 6 2 15 -5 19 -7 4 -10 4 -6 -1 4 -4 3 -14 -4 -22 -6 -8 -7 -13 -2
-11 10 3 14 -4 14 -24 0 -9 -4 -8 -11 2 -8 12 -9 11 -7 -6 2 -11 -1 -21 -6
-22 -5 0 -13 -7 -18 -16 -5 -9 -13 -14 -17 -12 -4 3 -8 -4 -8 -15 -1 -10 3
-19 9 -19 6 0 9 3 5 6 -3 4 0 13 8 20 18 19 31 18 15 -1 -7 -8 -9 -15 -5 -15
4 0 2 -6 -4 -13 -6 -8 -7 -18 -3 -23 4 -4 -2 -2 -12 6 -12 9 -17 10 -12 3 4
-7 2 -23 -4 -35 -11 -22 -11 -23 5 -3 16 19 16 19 10 -15 -4 -19 -9 -50 -12
-67 -3 -21 -9 -30 -17 -26 -8 5 -8 3 0 -8 6 -8 12 -52 13 -97 0 -46 4 -89 8
-95 4 -6 0 -8 -10 -4 -11 4 -20 -1 -27 -16 -10 -19 -9 -20 3 -5 8 10 18 13 26
8 11 -6 9 -10 -5 -20 -16 -10 -16 -11 -1 -6 12 4 17 0 17 -12 0 -10 6 -24 13
-31 10 -11 10 -13 0 -7 -9 5 -13 -3 -13 -28 0 -45 2 -52 15 -48 23 8 29 6 30
-8 1 -8 -3 -21 -8 -27 -6 -9 -5 -19 4 -30 12 -14 12 -16 0 -8 -11 6 -13 1 -9
-24 3 -22 1 -30 -7 -27 -6 2 -12 -2 -12 -10 0 -7 4 -11 8 -8 11 6 7 -38 -4
-53 -5 -8 -6 -13 0 -13 10 0 10 -46 0 -57 -4 -3 -2 -12 5 -20 9 -11 8 -13 -2
-11 -7 2 -15 -3 -18 -11 -3 -9 0 -11 9 -6 8 5 7 0 -3 -11 -17 -19 -17 -21 0
-38 9 -11 11 -16 5 -12 -10 5 -13 -7 -15 -46 0 -29 0 -62 0 -73 2 -16 0 -17
-8 -5 -8 12 -10 10 -11 -10 -2 -57 -8 -93 -17 -99 -4 -3 -8 -19 -8 -36 1 -23
-3 -30 -16 -29 -10 1 -15 -2 -12 -7 3 -5 13 -9 22 -9 10 0 13 -3 7 -8 -6 -4
-10 -17 -9 -29 1 -13 -4 -23 -12 -23 -20 0 -26 -17 -8 -24 8 -3 12 -2 9 4 -3
6 -2 10 3 10 6 0 12 -15 14 -33 3 -29 1 -33 -14 -29 -10 2 -18 -1 -18 -7 0 -7
-4 -9 -10 -6 -5 3 -21 -2 -35 -11 -14 -9 -25 -13 -25 -9 0 4 -8 1 -17 -6 -14
-12 -16 -12 -9 1 4 8 1 7 -8 -4 -8 -10 -20 -15 -27 -10 -8 5 -10 3 -4 -6 6
-10 4 -12 -7 -7 -9 3 -24 0 -35 -8 -22 -16 -103 -39 -122 -36 -9 2 -12 -3 -8
-13 5 -12 2 -13 -19 -6 -15 6 -23 6 -19 1 3 -6 -3 -10 -12 -10 -24 1 -74 -10
-87 -19 -6 -3 -20 -6 -31 -5 -11 2 -14 0 -7 -3 6 -3 12 -10 12 -15 0 -6 -7 -6
-18 0 -13 7 -23 6 -32 -2 -10 -9 -11 -9 -5 1 6 11 3 12 -14 3 -12 -7 -27 -8
-34 -4 -18 11 -38 13 -31 2 3 -5 10 -7 15 -4 5 4 9 2 9 -3 0 -6 -7 -12 -15
-16 -8 -3 -15 -1 -15 5 0 6 -6 7 -12 2 -7 -4 -26 -8 -41 -9 -25 -2 -27 -1 -15
14 11 13 11 14 0 8 -7 -4 -17 -18 -22 -30 -8 -19 -9 -19 -9 -2 -1 20 -1 20
-16 0 -12 -15 -16 -16 -24 -5 -6 10 -10 10 -16 1 -4 -6 -12 -9 -19 -7 -14 6
-37 -18 -28 -29 4 -5 -1 -2 -10 5 -10 7 -18 10 -18 6 0 -4 -6 -2 -14 4 -15 13
-49 4 -40 -10 3 -5 -6 -5 -20 1 -17 6 -27 6 -32 -2 -4 -7 -3 -8 4 -4 7 4 12 2
12 -3 0 -14 -17 -14 -25 -1 -6 9 -13 7 -64 -19 -14 -8 -21 -8 -16 -2 3 6 1 11
-4 11 -6 0 -11 -5 -11 -10 0 -6 -8 -10 -17 -8 -10 2 -17 -3 -16 -9 2 -7 -2
-13 -7 -13 -6 0 -10 6 -10 13 0 9 -3 8 -9 -2 -5 -8 -14 -10 -21 -6 -9 6 -11 4
-6 -4 6 -8 2 -11 -10 -9 -10 2 -19 -3 -20 -9 -1 -7 -2 -19 -3 -25 -1 -9 -4 -8
-11 2 -8 13 -10 13 -10 -2 0 -9 -9 -20 -20 -23 -11 -3 -20 -11 -20 -16 0 -5
-7 -9 -16 -9 -8 0 -13 -4 -10 -9 3 -5 -1 -11 -9 -15 -8 -3 -15 -16 -16 -28 0
-13 -3 -17 -6 -10 -8 20 -22 14 -16 -8 4 -15 0 -20 -15 -20 -12 0 -24 -5 -28
-12 -4 -6 -3 -8 4 -4 6 3 13 2 16 -3 7 -11 -13 -9 -33 3 -9 6 -12 5 -7 -2 3
-6 -2 -16 -11 -22 -15 -9 -14 -10 6 -4 21 5 22 4 10 -8 -7 -8 -21 -13 -31 -10
-20 5 -25 -13 -5 -22 8 -4 7 -5 -3 -5 -8 1 -24 1 -35 0 -17 -1 -18 -3 -5 -11
10 -6 11 -10 3 -10 -7 0 -13 -6 -13 -14 0 -7 -10 -21 -22 -30 -13 -9 -16 -14
-8 -11 13 6 13 5 0 -7 -8 -7 -15 -22 -14 -33 0 -11 -5 -29 -11 -40 -7 -11 -11
-30 -10 -42 1 -13 -3 -19 -8 -16 -6 4 -8 0 -4 -9 3 -9 0 -21 -6 -27 -6 -6 -8
-11 -4 -11 4 0 3 -10 -4 -21 -9 -17 -8 -20 3 -14 10 6 11 5 1 -6 -17 -17 -17
-32 0 -23 9 6 9 5 0 -7 -17 -21 -14 -100 5 -124 9 -11 10 -15 2 -7 -21 18 -28
15 -22 -14 3 -18 9 -24 21 -19 9 3 5 -4 -9 -15 -20 -16 -22 -20 -7 -20 9 0 17
-4 17 -10 0 -5 -8 -6 -17 -3 -16 6 -16 5 -4 -10 7 -9 9 -17 4 -17 -6 0 -8 -11
-5 -25 2 -14 8 -22 12 -20 5 3 12 0 16 -6 4 -7 3 -9 -3 -6 -6 4 -16 0 -23 -8
-10 -12 -10 -15 1 -15 9 0 10 -3 4 -8 -11 -8 -17 -44 -6 -38 3 2 6 -15 6 -39
0 -34 -3 -41 -13 -33 -9 8 -11 7 -6 -7 6 -14 4 -16 -6 -10 -9 5 -11 4 -6 -4 4
-6 12 -9 17 -6 5 4 9 -15 10 -42 0 -26 2 -80 3 -120 2 -50 -1 -70 -8 -66 -6 4
-2 -3 8 -15 19 -22 19 -22 -5 -49 -15 -17 -17 -22 -5 -13 18 14 19 13 13 -17
-3 -18 -3 -34 2 -37 4 -3 6 -24 4 -48 -2 -24 -3 -52 -3 -63 2 -28 2 -55 -1
-92 -2 -29 -4 -31 -18 -21 -15 12 -15 11 0 -7 10 -13 15 -37 14 -70 -1 -27 -4
-84 -5 -125 -1 -41 -7 -81 -12 -87 -7 -9 -7 -13 2 -13 9 0 10 -3 1 -13 -8 -10
-7 -17 1 -25 7 -7 8 -12 2 -12 -6 0 -11 -6 -11 -12 0 -13 -13 -172 -19 -243
-2 -22 -6 -87 -9 -145 -8 -142 -13 -211 -18 -235 -2 -11 0 -28 5 -39 7 -13 7
-16 -1 -12 -6 4 -11 1 -11 -8 0 -8 5 -18 11 -21 6 -5 4 -12 -8 -22 -10 -8 -12
-11 -4 -7 10 5 11 1 7 -14 -4 -11 -2 -23 4 -27 7 -5 5 -12 -7 -21 -10 -8 -13
-14 -8 -13 24 3 26 -3 11 -26 -9 -14 -14 -30 -11 -35 3 -6 0 -10 -7 -11 -7 0
-4 -4 7 -9 11 -5 14 -9 8 -9 -7 -1 -13 -8 -13 -17 0 -9 5 -12 13 -8 8 5 8 2
-2 -9 -11 -14 -11 -17 0 -17 10 0 10 -3 2 -11 -8 -8 -9 -19 -2 -37 6 -17 6
-27 0 -31 -12 -8 -10 -51 2 -51 5 0 -1 -9 -14 -20 -13 -11 -17 -18 -9 -15 11
4 15 -3 14 -28 -1 -19 -4 -39 -8 -46 -5 -7 -5 -15 -2 -18 3 -3 0 -13 -7 -21
-10 -13 -9 -14 3 -7 13 7 13 6 2 -7 -7 -8 -9 -24 -5 -33 5 -14 3 -16 -7 -10
-10 6 -12 4 -7 -10 4 -9 2 -25 -5 -33 -11 -13 -11 -14 2 -7 12 6 12 5 3 -5 -6
-7 -9 -19 -6 -26 3 -8 1 -14 -3 -14 -5 0 -9 -20 -9 -45 0 -34 -3 -44 -13 -40
-8 3 -10 0 -5 -8 9 -15 5 -59 -7 -71 -5 -5 -5 -17 1 -28 7 -14 6 -20 -6 -24
-8 -3 -12 -10 -9 -15 3 -5 11 -7 17 -3 7 3 5 0 -3 -8 -9 -7 -14 -21 -12 -32 3
-13 0 -16 -10 -11 -7 4 -5 0 4 -10 14 -15 15 -22 4 -44 -16 -33 -14 -57 4 -53
11 2 11 -1 -2 -11 -14 -11 -15 -16 -5 -27 9 -10 9 -11 0 -6 -7 4 -13 2 -13 -3
0 -6 6 -11 13 -11 9 0 9 -2 -1 -9 -11 -7 -10 -9 3 -15 18 -6 12 -26 -8 -26 -7
0 -6 4 3 10 8 5 10 10 4 10 -23 0 -24 -15 -2 -32 13 -10 16 -16 8 -13 -11 4
-16 -1 -17 -15 -1 -13 3 -18 10 -14 7 3 5 -1 -5 -8 -12 -11 -14 -18 -6 -33 9
-15 8 -17 -8 -12 -18 7 -18 6 0 -8 11 -8 14 -15 8 -15 -19 0 -14 -20 6 -21 12
0 10 -3 -7 -10 -19 -7 -22 -12 -13 -21 14 -14 16 -42 3 -34 -5 4 -7 -3 -4 -15
4 -13 8 -17 13 -9 5 8 9 7 13 -5 4 -9 3 -14 -1 -11 -4 2 -14 1 -22 -5 -12 -7
-11 -9 5 -9 18 -1 19 -1 3 -11 -10 -5 -18 -15 -18 -21 0 -7 6 -6 15 2 9 7 18
10 22 6 3 -3 1 -6 -6 -6 -7 0 -11 -7 -8 -15 4 -8 1 -17 -5 -21 -7 -5 -8 -2 -3
6 5 9 4 11 -4 6 -8 -6 -9 -12 -2 -20 7 -9 7 -16 -1 -24 -16 -16 4 -15 22 1 7
6 5 0 -6 -14 -10 -15 -23 -24 -29 -21 -5 3 -3 -2 5 -12 8 -10 15 -28 17 -39 2
-17 1 -19 -6 -7 -5 8 -7 18 -5 22 3 4 1 8 -4 8 -5 0 -8 -17 -6 -37 2 -21 3
-38 4 -38 6 0 4 -57 -1 -61 -4 -2 -5 -13 -2 -24 3 -13 0 -20 -8 -20 -11 0 -11
-2 1 -10 9 -6 17 -5 22 3 6 9 8 9 8 0 0 -7 -9 -22 -20 -33 -11 -11 -15 -20 -8
-20 9 0 9 -3 1 -11 -15 -15 -5 -39 13 -32 8 3 14 0 14 -6 0 -6 -3 -10 -7 -10
-29 5 -42 -26 -19 -43 11 -8 18 -40 7 -34 -4 3 -13 1 -20 -4 -10 -6 -8 -9 8
-15 11 -3 21 -11 21 -16 0 -6 -3 -8 -7 -6 -15 9 -28 -18 -27 -53 0 -19 5 -35
11 -35 6 0 15 -4 20 -9 4 -5 3 -6 -3 -3 -6 4 -20 -1 -30 -9 -10 -9 -13 -13 -7
-9 7 3 21 1 30 -5 14 -9 15 -11 2 -7 -13 4 -16 -1 -14 -23 1 -16 -4 -41 -11
-55 -7 -14 -10 -23 -5 -21 4 3 17 -1 27 -9 18 -14 18 -14 -3 -10 -24 4 -24 6
8 -56 6 -13 7 -19 0 -15 -5 4 -12 2 -16 -4 -3 -5 2 -10 11 -10 16 0 16 -1 -2
-16 -19 -15 -19 -16 1 -9 16 5 17 4 8 -6 -8 -8 -9 -18 -2 -31 7 -13 7 -18 -2
-16 -10 2 -17 -35 -9 -44 3 -4 11 -153 13 -240 1 -38 5 -68 8 -68 4 0 7 -21 8
-47 1 -27 3 -75 5 -108 1 -33 -2 -66 -7 -73 -7 -9 -7 -12 3 -10 9 2 13 -13 14
-55 1 -33 -2 -61 -7 -64 -4 -2 -5 -13 -2 -22 3 -11 -2 -24 -12 -32 -15 -11
-16 -11 -5 1 6 8 12 18 12 23 0 4 -11 -4 -24 -20 -25 -29 -25 -56 0 -46 12 4
12 8 2 22 -12 14 -11 15 5 2 22 -18 22 -18 -12 -36 -29 -15 -33 -28 -17 -54 6
-10 5 -12 -2 -7 -7 4 -12 2 -12 -3 0 -6 5 -11 12 -11 6 0 3 -7 -8 -16 -10 -8
-13 -13 -6 -9 6 3 12 3 12 -2 0 -12 -36 -65 -44 -64 -3 1 -6 -1 -6 -4 0 -3 0
-10 0 -16 0 -8 4 -8 14 0 11 9 16 9 22 0 4 -7 3 -10 -2 -6 -5 3 -18 -2 -29
-10 -16 -13 -17 -15 -2 -10 16 6 22 -4 18 -27 -1 -5 4 -13 11 -17 11 -7 11 -9
0 -9 -7 0 -11 -4 -8 -8 13 -22 13 -61 0 -66 -7 -3 -11 -12 -8 -21 4 -8 0 -23
-7 -33 -13 -15 -12 -16 4 -3 9 7 17 12 18 10 7 -24 4 -87 -5 -98 -8 -11 -8
-13 2 -7 6 4 12 4 13 -1 0 -4 2 -16 4 -26 2 -9 0 -15 -4 -13 -10 7 -7 -32 4
-41 4 -5 5 -3 2 3 -3 6 0 11 8 11 12 0 12 -4 -2 -20 -17 -19 -17 -20 0 -14 9
4 17 2 17 -2 0 -5 -6 -11 -14 -14 -17 -7 -16 -58 2 -79 6 -8 9 -18 5 -21 -3
-4 -2 -7 4 -7 13 0 25 28 18 40 -3 5 -1 11 5 15 5 3 10 -1 10 -10 0 -9 4 -14
8 -11 5 3 9 -1 9 -8 0 -8 -7 -12 -14 -9 -8 3 -13 2 -12 -3 1 -5 0 -12 -1 -16
-9 -29 6 -61 24 -50 5 3 6 -1 1 -8 -6 -10 -4 -12 10 -6 14 5 16 4 6 -7 -9 -11
-8 -17 5 -27 8 -8 13 -22 10 -32 -2 -11 2 -22 10 -25 12 -4 12 -8 -3 -20 -10
-8 -12 -12 -5 -8 6 3 15 -1 18 -9 3 -9 9 -14 13 -12 4 3 6 -8 5 -25 -1 -16 3
-29 9 -29 6 0 2 -7 -9 -16 -10 -8 -14 -13 -7 -10 8 5 10 -2 7 -20 -3 -18 1
-31 13 -40 14 -10 15 -13 4 -14 -11 0 -10 -4 5 -16 19 -15 19 -16 -1 -10 -17
5 -18 4 -5 -6 17 -14 19 -27 7 -46 -6 -8 -4 -12 5 -10 9 2 13 -8 13 -29 0 -18
2 -33 5 -33 7 0 11 -31 13 -107 1 -35 4 -63 8 -63 3 0 6 -13 6 -30 0 -16 -4
-27 -9 -24 -4 3 -5 -2 -2 -10 3 -9 11 -13 17 -9 6 3 7 1 3 -6 -4 -6 -2 -19 6
-28 11 -15 11 -16 -6 -10 -16 6 -17 5 -7 -7 7 -8 9 -21 5 -27 -4 -8 -3 -9 4
-5 7 4 12 1 12 -9 0 -10 5 -13 13 -9 8 5 8 2 -2 -9 -9 -12 -10 -17 -2 -17 7 0
9 -5 5 -12 -4 -7 -3 -8 5 -4 6 4 9 11 6 16 -3 4 4 6 15 3 19 -5 20 -6 3 -20
-10 -8 -12 -12 -5 -8 7 4 19 1 27 -5 17 -15 20 -30 4 -30 -5 0 -7 5 -4 10 3 6
1 10 -5 10 -7 0 -9 -7 -6 -16 3 -9 6 -18 6 -20 0 -2 7 -4 16 -4 11 0 15 -6 11
-20 -3 -11 -1 -20 4 -20 5 0 9 -9 9 -19 0 -11 5 -23 10 -26 6 -3 10 -17 10
-31 0 -13 5 -24 10 -24 6 0 10 -7 10 -16 0 -8 4 -13 8 -10 4 2 9 -4 9 -15 1
-12 -3 -17 -9 -13 -7 4 -8 2 -4 -5 4 -6 11 -9 15 -7 11 7 35 -40 27 -53 -5 -7
-1 -8 10 -4 12 5 15 3 9 -6 -6 -11 -3 -11 16 0 22 11 23 11 10 -5 -13 -16 -13
-18 0 -16 25 4 40 0 35 -9 -3 -4 6 -7 20 -5 18 2 24 -2 20 -11 -2 -7 1 -16 9
-19 10 -3 12 0 8 12 -4 9 9 2 28 -17 19 -19 33 -38 32 -41 -1 -4 9 -6 22 -4
28 3 31 -5 13 -26 -11 -12 -10 -12 3 -2 9 6 20 8 24 4 5 -4 5 -2 1 5 -3 6 -2
14 4 18 5 3 10 1 10 -5 0 -8 6 -8 20 0 16 8 20 8 18 -2 -2 -7 3 -12 11 -10 7
1 19 -3 27 -9 11 -9 18 -8 31 2 15 12 16 12 10 -4 -5 -14 -3 -16 11 -10 27 13
62 9 72 -7 7 -12 11 -7 16 18 4 18 10 35 15 38 5 3 6 -3 2 -12 -4 -11 -3 -15
5 -10 6 3 13 2 16 -3 4 -5 -2 -12 -11 -14 -16 -4 -16 -5 -1 -6 9 0 20 -11 23
-22 6 -17 9 -19 17 -8 7 11 8 9 4 -5 -4 -11 -2 -22 4 -26 6 -4 12 -16 15 -28
2 -11 8 -29 14 -40 6 -11 7 -22 4 -26 -3 -3 -2 -6 4 -6 9 0 20 -31 27 -72 1
-3 4 -9 8 -13 3 -4 4 -18 2 -32 -3 -14 -1 -22 5 -19 14 9 19 -15 10 -41 -5
-13 -4 -25 1 -28 5 -3 6 -13 3 -22 -5 -12 -3 -14 7 -8 9 5 11 4 6 -4 -4 -6 -1
-23 8 -36 9 -14 11 -25 5 -27 -5 -2 0 -14 11 -26 12 -13 19 -30 16 -38 -3 -9
-2 -12 5 -9 6 4 9 1 8 -6 -1 -8 5 -31 14 -51 10 -21 18 -47 20 -59 2 -11 8
-24 13 -27 5 -4 9 -13 10 -19 2 -29 4 -34 12 -29 4 2 9 -6 10 -19 3 -36 6 -49
15 -56 4 -3 9 -16 12 -28 2 -13 10 -30 17 -39 8 -10 9 -13 1 -9 -13 8 -12 -18
2 -30 4 -4 5 -2 0 6 -6 10 -4 12 4 6 7 -4 11 -18 8 -32 -3 -18 -1 -23 10 -19
8 3 11 1 8 -5 -4 -5 -1 -16 5 -24 7 -8 10 -21 7 -29 -3 -8 -2 -16 2 -18 8 -3
42 -112 57 -177 3 -13 9 -32 15 -42 5 -10 10 -29 11 -43 1 -15 5 -26 8 -26 3
0 7 -14 8 -32 2 -18 7 -35 13 -39 6 -3 10 -15 8 -25 -2 -20 7 -64 20 -99 21
-53 34 -95 47 -150 8 -33 17 -67 21 -75 3 -8 8 -26 10 -39 2 -13 11 -33 19
-46 8 -12 14 -27 13 -31 -1 -5 2 -20 8 -34 6 -14 11 -28 12 -32 1 -4 9 -24 17
-43 8 -20 12 -40 9 -45 -4 -6 -2 -10 3 -10 5 0 9 -6 10 -12 1 -29 12 -62 27
-84 8 -13 20 -47 26 -76 6 -29 13 -60 16 -68 3 -8 7 -19 8 -25 2 -5 10 -39 19
-75 24 -93 27 -111 29 -152 1 -20 5 -34 10 -31 4 2 8 -2 8 -9 4 -40 8 -58 24
-113 10 -33 23 -68 29 -77 10 -17 72 -18 1169 -18 1139 0 1157 1 1147 20 -7
13 -7 21 2 26 7 5 8 3 3 -6 -6 -9 -4 -11 4 -6 7 5 10 15 7 23 -5 11 -2 13 10
9 15 -6 15 -4 3 10 -15 18 -14 21 3 42 8 8 7 12 -3 12 -11 0 -11 2 1 10 8 5
11 10 6 10 -6 0 -1 7 10 16 10 8 13 12 5 8 -11 -5 -13 -3 -8 10 4 10 7 22 7
27 0 6 6 7 13 3 8 -5 8 -3 -2 9 -11 14 -11 18 2 23 9 3 14 15 12 30 -1 13 3
35 10 48 9 17 10 27 2 35 -8 8 -7 11 2 11 8 0 11 6 7 15 -3 8 -1 15 3 15 5 0
12 7 15 16 4 10 2 13 -7 9 -6 -4 -4 0 6 8 18 15 24 32 7 22 -5 -3 -10 -1 -10
4 0 6 5 11 12 11 6 0 8 3 5 7 -4 3 -2 12 4 20 9 10 8 13 -1 13 -10 0 -10 3 0
15 6 8 9 19 6 24 -4 5 -1 13 5 17 8 5 9 3 4 -6 -5 -9 -4 -11 4 -6 6 4 8 13 4
19 -14 22 -12 39 3 33 9 -3 12 -1 9 4 -3 6 0 10 7 10 8 0 9 3 3 8 -6 4 -11 12
-10 19 0 15 15 30 15 15 0 -7 5 -12 10 -12 6 0 2 12 -7 27 -10 15 -12 24 -5
19 10 -6 11 -1 6 20 -5 18 -3 25 3 21 6 -4 14 0 17 9 3 8 2 12 -4 9 -6 -3 -10
-1 -10 4 0 6 6 11 13 11 8 0 12 11 11 30 -2 30 10 48 20 31 4 -5 2 -12 -4 -16
-15 -9 -12 -22 4 -22 8 0 12 6 10 12 -3 7 2 18 11 25 8 7 15 17 15 23 0 6 -6
3 -12 -6 -12 -15 -14 -15 -24 6 -8 18 -8 24 2 24 7 0 10 -5 7 -11 -3 -6 0 -6
7 1 10 9 10 15 -4 28 -9 9 -16 19 -16 22 0 4 3 3 7 0 3 -4 12 1 19 11 12 15
13 14 8 -8 -4 -21 -3 -22 4 -5 6 12 6 30 0 44 -7 20 -6 22 6 12 11 -9 16 -9
22 1 13 21 12 50 -3 55 -9 4 -10 9 -3 18 5 6 7 15 3 18 -3 4 -2 7 3 7 6 0 10
10 11 23 1 12 5 33 9 46 5 17 4 22 -4 17 -7 -4 -12 -3 -12 2 0 6 7 12 15 16 9
3 12 12 8 22 -4 11 -2 15 4 11 6 -4 9 3 7 18 -1 14 2 25 7 25 6 0 7 5 4 10 -3
6 -1 10 4 10 6 0 11 8 11 17 0 9 8 25 18 36 9 11 12 18 6 14 -6 -3 -11 0 -11
8 0 8 4 12 9 9 5 -4 8 2 6 12 -2 11 2 18 10 16 10 -2 10 2 2 18 -9 16 -8 20 7
21 11 0 13 3 5 6 -6 2 -9 10 -5 16 8 13 10 19 12 43 0 8 5 13 10 10 5 -4 8 5
6 19 -1 14 1 25 5 25 5 0 6 10 2 22 -3 13 -1 19 5 15 7 -5 9 1 5 15 -4 16 -2
19 8 13 9 -5 11 -4 6 4 -4 6 -2 19 6 28 11 14 11 16 -1 8 -11 -6 -12 -5 -5 6
9 14 10 19 13 40 0 5 7 7 14 3 8 -5 8 -2 -2 9 -9 12 -10 17 -2 17 8 0 9 5 1
19 -8 16 -6 22 7 30 10 6 14 11 9 11 -5 0 -3 7 4 15 10 12 10 15 -1 15 -9 0
-10 3 -4 8 6 4 12 16 13 27 2 11 9 23 15 27 9 6 9 8 0 8 -15 0 -7 37 18 84 6
10 6 16 1 12 -5 -3 -9 1 -9 9 0 8 4 12 9 9 4 -3 8 11 8 30 0 19 5 38 11 41 6
4 8 13 5 21 -3 8 0 14 6 14 6 0 8 3 5 7 -4 3 -1 13 6 21 10 13 9 14 -1 8 -11
-7 -12 -4 -3 11 6 11 7 24 3 28 -4 5 -1 5 6 1 7 -4 9 -13 6 -19 -4 -7 -3 -8 2
-4 12 11 12 30 1 38 -5 3 -3 12 5 20 7 8 14 25 15 39 2 24 9 63 13 68 2 1 3 5
4 10 1 4 4 12 7 17 6 9 21 62 23 77 1 4 6 12 12 18 8 8 13 7 17 -4 4 -11 1
-13 -11 -10 -14 5 -15 4 -2 -5 10 -7 11 -11 3 -11 -7 0 -13 -5 -13 -11 0 -8 4
-8 13 0 8 6 23 9 36 6 12 -2 19 0 16 6 -4 5 -1 9 6 9 7 0 9 3 6 6 -4 4 -13 2
-21 -5 -11 -9 -15 -8 -20 5 -3 8 -6 17 -6 18 0 2 13 2 29 1 25 -1 29 1 25 22
-3 13 1 23 7 23 6 0 9 6 6 14 -3 7 1 23 9 34 9 13 11 23 4 27 -14 9 -12 28 4
51 14 18 14 17 10 -13 -3 -18 -1 -33 4 -33 12 0 13 61 2 75 -11 13 15 49 29
41 5 -4 12 -2 16 4 4 6 10 8 15 5 4 -3 12 1 18 8 11 15 12 48 0 41 -13 -8 -10
10 5 25 10 11 10 13 0 7 -7 -4 -13 -4 -14 1 0 4 -2 18 -3 30 -2 13 2 23 7 23
5 0 4 6 -2 13 -8 11 -7 18 7 31 10 9 23 13 27 9 5 -5 3 0 -5 11 -17 22 -22 49
-7 39 6 -4 8 0 4 10 -3 9 -2 19 3 22 6 4 10 0 10 -8 0 -8 10 -17 23 -20 19 -5
20 -4 6 6 -9 7 -15 20 -13 30 1 11 -2 15 -9 10 -7 -4 -6 1 2 10 11 13 11 17 1
17 -8 0 -10 3 -7 7 4 3 -1 12 -11 19 -16 12 -16 13 1 10 10 -1 23 -9 29 -17 8
-11 9 -11 5 3 -3 9 -1 19 6 22 7 3 3 4 -7 3 -10 -1 -21 4 -23 11 -3 8 2 10 14
6 14 -5 15 -4 3 4 -10 8 -18 8 -27 0 -17 -14 -17 4 0 21 8 8 8 11 1 9 -7 -2
-12 -1 -11 2 0 3 -5 16 -12 29 -7 13 -9 21 -4 18 5 -3 16 3 23 14 14 19 37 28
25 9 -3 -5 7 -8 22 -7 20 1 27 -2 25 -13 -2 -11 1 -11 11 2 8 10 20 18 27 18
10 0 10 -3 0 -15 -11 -13 -10 -14 4 -9 9 3 16 10 16 14 0 4 7 11 16 14 8 3 12
2 9 -4 -3 -6 1 -7 9 -4 9 3 16 10 16 16 0 5 4 7 9 4 5 -3 14 1 21 9 10 12 16
13 28 3 10 -8 13 -9 9 -2 -4 7 0 15 9 18 10 4 13 2 9 -7 -4 -6 -1 -5 7 4 14
17 62 33 52 18 -3 -5 2 -6 10 -3 9 3 16 10 16 15 0 5 3 8 8 8 19 -3 33 2 27
10 -3 5 -1 12 5 16 5 3 10 0 11 -7 0 -7 4 -3 10 10 6 15 13 21 21 16 9 -6 9
-3 -1 9 -7 9 -11 18 -7 18 3 1 12 2 19 3 6 1 11 7 9 14 -1 7 5 12 13 12 10 0
15 7 13 18 -2 10 2 16 10 14 7 -1 12 3 11 10 -4 20 34 78 51 78 9 0 11 3 5 8
-14 10 -13 37 2 37 6 0 15 4 20 9 4 5 3 6 -4 2 -6 -3 -14 -2 -18 4 -3 5 2 10
13 10 14 0 19 6 17 24 -2 16 1 23 9 20 7 -3 12 5 13 17 1 12 6 25 10 28 12 9
14 31 3 31 -5 0 -10 5 -10 11 0 5 6 7 13 3 8 -5 8 -2 -2 9 -11 14 -11 17 0 17
8 0 6 6 -7 16 -10 8 -12 12 -4 8 13 -7 13 -5 2 9 -8 9 -11 21 -8 26 4 5 2 12
-4 16 -5 3 -10 19 -10 36 0 16 -5 29 -11 29 -5 0 -7 5 -4 10 3 6 1 10 -5 10
-6 0 -8 5 -5 10 3 6 1 10 -6 10 -8 0 -7 5 2 17 10 11 10 14 2 9 -12 -6 -18 11
-14 36 0 5 -3 8 -9 8 -5 0 -10 7 -10 16 0 9 -5 12 -12 8 -10 -6 -10 -4 0 7 14
16 16 33 2 24 -13 -8 -13 1 2 28 10 20 10 21 -6 8 -14 -12 -16 -12 -10 3 3 9
1 16 -5 16 -6 0 -11 5 -11 11 0 5 6 7 13 3 9 -6 9 -5 1 7 -17 21 -35 91 -22
83 7 -5 8 -2 2 7 -18 30 -26 122 -9 115 7 -2 12 8 13 25 6 81 5 79 27 73 20
-6 20 -6 0 10 -15 12 -16 15 -5 16 13 0 13 1 0 10 -12 7 -12 12 -3 21 8 8 17
9 26 3 7 -5 6 -2 -3 6 -17 18 -24 40 -12 40 4 0 7 17 6 37 -1 21 5 45 13 55
10 11 11 18 3 23 -6 3 -9 3 -8 -2 2 -4 -1 -9 -7 -10 -5 -2 -10 13 -10 32 0 19
-5 35 -10 35 -16 0 -64 87 -60 108 2 11 -2 19 -10 19 -8 0 -12 -4 -9 -9 3 -4
0 -8 -5 -8 -18 0 -12 28 7 33 12 3 13 5 2 6 -20 1 -41 86 -26 102 8 9 8 10 -1
5 -8 -4 -13 -1 -13 8 0 8 -6 17 -12 20 -7 3 -2 3 12 0 21 -4 22 -3 8 6 -10 6
-15 17 -11 27 4 10 2 14 -4 10 -7 -4 -10 0 -9 10 2 10 0 30 -5 45 -5 19 -4 25
5 22 7 -3 13 2 13 10 0 8 -5 12 -12 10 -7 -3 -10 9 -9 36 1 23 -3 40 -10 41
-6 1 0 5 14 9 18 6 20 8 7 9 -10 1 -15 6 -12 11 3 6 1 10 -6 10 -9 0 -9 3 0
14 7 9 8 17 2 20 -10 7 -9 25 2 44 5 6 4 12 0 12 -5 0 -8 12 -7 28 1 15 -4 33
-10 41 -12 16 -12 17 12 46 9 11 10 14 2 8 -21 -19 -35 -16 -19 4 10 11 10 14
2 9 -7 -4 -13 -2 -13 3 0 6 6 11 13 11 8 0 7 3 -3 10 -9 6 -14 21 -12 41 3 20
0 29 -7 25 -7 -4 -8 -1 -5 8 3 9 10 13 15 10 5 -3 6 2 3 10 -3 9 -10 16 -15
16 -5 0 -9 5 -9 11 0 5 6 7 13 3 6 -4 3 3 -8 16 -11 13 -14 20 -7 16 15 -9 16
6 0 22 -9 9 -9 12 1 12 7 0 9 5 4 13 -12 19 -12 38 0 30 7 -4 8 0 4 11 -4 10
-7 20 -7 22 0 3 -6 2 -12 -1 -7 -4 -4 1 6 9 18 15 19 16 2 16 -16 0 -15 3 5
21 13 11 19 18 13 15 -7 -3 -18 2 -25 11 -8 9 -9 14 -3 10 7 -4 14 -1 16 6 7
17 -2 38 -13 31 -5 -3 -9 0 -9 5 0 6 6 11 13 11 9 0 8 3 -2 9 -8 5 -14 29 -15
60 -2 42 1 51 12 46 13 -5 13 -3 1 11 -7 9 -12 29 -11 45 1 17 -3 29 -10 29
-6 0 -3 7 8 15 13 10 14 14 5 15 -10 0 -11 3 -2 14 9 11 9 16 0 22 -8 5 -9 3
-4 -6 5 -9 4 -11 -4 -6 -8 5 -9 12 -2 20 5 6 6 18 2 25 -5 7 -6 22 -4 32 4 13
0 19 -10 19 -9 0 -18 4 -21 9 -4 5 4 7 16 3 l23 -5 -20 23 c-11 13 -14 20 -8
16 10 -5 11 -1 4 17 -7 17 -6 29 2 37 9 10 9 11 -2 5 -11 -6 -13 -3 -9 13 4
12 2 20 -3 16 -5 -3 -9 -1 -9 5 0 5 6 12 13 14 7 3 4 6 -6 6 -10 1 -15 6 -12
11 4 6 10 8 14 6 4 -3 8 1 8 9 0 10 -5 11 -17 5 -12 -6 -17 -5 -17 5 0 8 4 12
9 9 5 -3 6 7 3 23 -4 15 -8 39 -10 53 -5 36 -4 36 -15 20 -8 -11 -9 -7 -4 14
5 21 4 27 -5 22 -17 -11 -13 0 6 15 10 8 14 9 10 2 -4 -6 -2 -15 4 -19 8 -4 9
-3 5 4 -4 7 -2 12 4 12 7 0 5 7 -4 16 -19 18 -21 54 -3 54 8 0 7 4 -3 10 -13
9 -13 10 0 10 12 0 13 2 1 9 -7 5 -9 11 -5 13 10 5 -6 1 -33 -8 -15 -5 -16 -4
-3 5 18 12 20 31 6 50 -9 12 -8 13 3 6 11 -6 13 -4 8 9 -4 9 -3 15 1 12 5 -3
7 5 6 17 -4 33 -4 33 -13 19 -5 -8 -8 2 -7 27 0 23 4 41 7 41 3 0 4 11 1 25
-2 15 -9 22 -16 18 -6 -4 -4 2 4 12 13 17 13 18 -1 13 -9 -3 -16 -1 -16 5 0 7
-2 19 -4 27 -3 10 3 14 14 14 17 -2 17 0 3 15 -9 10 -13 21 -9 25 4 4 1 11 -7
16 -13 8 -12 10 2 10 21 0 32 16 17 26 -8 4 -9 3 -5 -4 4 -7 5 -12 2 -12 -3 0
-10 9 -16 20 -9 16 -8 18 5 14 11 -5 13 -2 9 10 -3 9 -9 14 -13 12 -4 -3 -7 4
-7 14 0 15 3 17 15 7 12 -10 13 -9 2 11 -6 12 -9 22 -5 22 3 0 0 8 -7 17 -8 9
-9 14 -3 10 7 -4 14 2 17 14 5 17 3 18 -10 7 -15 -12 -15 -11 -4 10 6 12 8 22
2 22 -5 0 -12 7 -15 16 -3 8 -2 12 4 9 6 -3 10 -1 10 5 0 6 6 8 13 5 6 -4 4 0
-5 8 -10 8 -15 17 -11 21 11 10 11 46 0 46 -6 0 -5 5 1 13 15 18 15 29 0 38
-9 7 -10 11 -1 17 17 11 21 48 4 44 -12 -3 -12 0 -2 12 7 9 17 14 20 11 4 -2
8 2 8 10 0 8 -4 12 -8 10 -4 -3 -10 2 -13 11 -9 23 -8 27 9 20 21 -8 19 11 -2
23 -17 10 -17 10 0 11 17 0 17 1 3 16 -14 14 -14 34 0 34 3 0 2 -5 -2 -12 -4
-7 -3 -8 5 -4 9 6 9 11 0 22 -7 9 -7 14 -1 14 5 0 9 16 7 35 -2 20 1 35 7 35
7 0 6 5 -1 14 -9 11 -9 15 1 18 10 4 10 9 -2 23 -9 11 -10 16 -2 11 6 -4 12
-3 12 3 0 6 8 8 18 5 16 -5 16 -5 0 6 -10 6 -18 18 -18 25 0 8 8 15 18 16 14
0 14 2 -3 9 -14 6 -16 9 -5 10 8 2 19 2 24 1 5 -1 3 6 -5 15 -12 16 -12 17 1
12 11 -4 16 1 18 15 0 12 6 23 12 25 5 2 8 8 4 13 -3 5 2 9 11 9 9 0 14 -3 12
-7 -3 -5 13 -9 34 -10 22 -2 48 -7 59 -13 15 -8 20 -8 20 2 0 9 3 9 8 2 4 -5
24 -10 45 -10 22 1 41 -3 44 -7 3 -4 10 -4 16 1 7 5 27 8 45 7 17 -1 32 1 32
5 0 3 8 7 18 8 40 4 54 9 61 21 5 7 10 12 12 11 10 -4 58 20 62 32 3 8 6 5 6
-7 1 -17 3 -17 11 -5 7 11 10 11 10 2 0 -9 5 -10 19 -3 14 8 20 7 25 -4 3 -8
9 -15 13 -14 17 3 53 -14 53 -25 0 -6 5 -4 10 4 6 9 10 11 10 3 0 -7 7 -10 15
-7 8 4 15 1 15 -6 0 -10 3 -10 14 -1 10 9 16 9 21 1 4 -6 16 -8 27 -4 11 3 18
2 15 -3 -3 -5 5 -9 18 -9 13 0 21 4 19 8 -3 5 -10 5 -16 2 -6 -4 -8 -3 -5 3 3
5 19 9 36 8 22 -1 28 2 23 13 -3 9 -1 13 4 10 15 -10 47 19 38 34 -5 9 -2 8
11 -2 17 -14 18 -14 7 7 -7 12 -17 25 -22 28 -6 4 -8 11 -5 16 8 12 35 12 35
-1 0 -5 -8 -6 -17 -3 -16 6 -16 5 -4 -11 21 -25 49 -38 56 -26 4 6 3 10 -2 9
-24 -4 -31 3 -28 29 2 15 4 27 5 27 1 0 3 9 5 19 2 10 10 23 17 28 10 8 9 9
-4 5 -9 -3 -19 1 -22 9 -3 9 -1 12 4 9 6 -3 10 -1 10 4 0 6 -9 11 -21 11 -13
0 -18 -4 -13 -12 5 -9 2 -9 -9 1 -14 11 -17 11 -17 0 0 -11 -2 -11 -10 1 -8
13 -13 9 -12 -10 0 -3 -17 -5 -39 -6 -22 0 -35 3 -28 6 8 6 7 9 -2 13 -8 3 4
4 26 2 22 -2 34 -1 27 2 -6 2 -9 10 -6 16 5 8 2 8 -7 0 -17 -17 -34 -17 -22 0
12 14 13 48 2 41 -5 -2 -6 -11 -2 -19 4 -11 0 -14 -13 -9 -15 4 -16 4 -5 -4
10 -7 4 -9 -20 -7 -33 2 -39 9 -23 23 4 4 4 1 -1 -7 -5 -10 -4 -12 4 -7 19 12
4 23 -29 21 -20 -1 -30 3 -30 12 0 7 -7 16 -15 19 -8 4 -15 10 -15 16 0 5 6 6
13 2 6 -4 3 2 -7 14 -24 28 -25 28 -21 -5 2 -16 2 -22 -1 -15 -3 6 -12 12 -20
12 -8 0 -17 7 -20 15 -3 8 -15 17 -26 21 -13 4 -18 12 -15 25 3 10 0 17 -7 16
-6 -1 -11 10 -12 24 -1 15 -4 34 -7 43 -4 9 -2 16 4 16 6 0 7 6 1 17 -7 12 -4
21 12 36 11 10 16 16 10 13 -6 -3 -11 1 -11 9 0 8 5 13 11 12 6 -1 10 4 8 11
-1 9 6 8 25 -4 16 -9 21 -10 13 -3 -17 16 -26 44 -11 35 5 -4 14 2 20 11 9 16
12 16 21 3 5 -8 10 -10 10 -5 0 6 -6 17 -12 24 -7 8 -8 12 -3 9 6 -2 20 6 32
19 12 13 20 23 17 23 -3 0 8 12 23 26 15 15 19 20 8 13 -20 -13 -20 -13 -1 8
10 12 21 22 25 21 20 -2 30 5 35 27 4 16 11 23 18 19 8 -5 9 -2 5 9 -3 10 -2
17 3 17 6 0 10 7 10 15 0 8 5 15 10 15 6 0 10 6 10 14 0 8 5 18 12 22 7 5 8 3
3 -6 -5 -8 -4 -11 3 -6 6 3 9 15 7 26 -2 11 1 20 6 20 6 0 8 3 6 8 -3 4 0 18
6 32 10 24 17 63 18 105 0 10 5 26 12 34 9 11 9 13 0 8 -16 -10 -22 14 -11 37
7 13 6 21 -3 27 -10 6 -10 11 0 22 6 8 8 17 3 19 -6 1 -12 22 -15 46 -3 32 -2
40 8 32 6 -5 14 -8 17 -5 2 3 5 -2 5 -10 0 -8 -3 -12 -7 -10 -3 2 -7 -6 -7
-18 -2 -15 0 -18 6 -8 5 7 11 9 13 5 3 -5 4 -4 2 2 -1 6 6 29 16 52 12 26 15
44 9 48 -6 3 -8 12 -6 18 3 7 -1 13 -8 13 -10 0 -11 -5 -4 -18 6 -12 5 -20 -2
-24 -6 -4 -8 -13 -5 -21 3 -8 1 -14 -5 -14 -7 0 -9 13 -7 30 3 17 0 34 -5 37
-6 3 -7 1 -3 -5 4 -7 2 -12 -4 -12 -12 0 -4 38 12 55 6 6 7 4 2 -8 -8 -22 14
-20 34 3 8 8 11 9 7 3 -3 -7 -3 -19 2 -25 8 -13 9 -18 12 -39 0 -5 6 -7 13 -3
8 5 9 2 5 -10 -6 -14 -3 -17 9 -12 10 4 14 2 11 -6 -2 -7 0 -22 6 -33 6 -11
12 -29 14 -40 2 -10 8 -22 15 -26 6 -4 7 -12 2 -20 -6 -11 -3 -10 10 1 11 8
14 16 7 18 -6 2 -9 8 -5 13 3 5 -2 12 -11 15 -14 6 -14 9 -3 16 10 8 11 11 0
15 -10 4 -10 8 -1 19 10 12 9 13 -4 8 -12 -4 -14 -1 -10 15 3 12 1 21 -4 21
-12 0 -14 41 -3 55 7 8 1 11 -20 10 -16 -1 -27 2 -24 7 3 4 11 8 17 8 7 0 12
11 12 24 0 17 -4 22 -15 18 -13 -5 -13 -3 -2 10 11 14 10 18 -8 28 -11 6 -24
8 -29 5 -5 -3 -7 4 -4 15 3 11 0 26 -6 34 -16 19 -3 50 14 36 9 -8 15 -8 20 0
4 6 1 9 -6 8 -7 -2 -13 2 -14 7 0 6 -7 20 -15 32 -13 20 -15 20 -27 5 -11 -14
-14 -15 -22 -3 -5 8 -7 25 -5 38 2 12 0 23 -6 23 -6 0 -9 -4 -5 -9 3 -5 1 -12
-5 -16 -5 -3 -10 1 -10 10 0 9 -4 13 -10 10 -6 -3 -7 1 -4 9 3 9 1 16 -5 16
-6 0 -11 5 -11 11 0 5 4 8 9 4 5 -3 12 -1 15 4 4 5 2 12 -3 15 -5 4 -12 2 -16
-4 -3 -5 -13 -10 -22 -10 -12 0 -10 4 6 18 14 11 18 21 12 31 -6 9 -11 10 -15
2 -4 -6 -2 -11 4 -11 6 0 8 -4 5 -10 -8 -12 -56 35 -60 58 -1 9 -8 16 -13 15
-6 -2 -9 4 -6 12 4 8 1 15 -7 15 -7 0 -9 3 -6 7 4 3 3 11 -2 17 -6 7 -1 11 15
12 20 2 22 -1 13 -17 -9 -17 -6 -23 12 -21 3 1 5 -10 3 -23 -1 -14 2 -27 7
-31 5 -3 9 5 9 17 l0 22 26 -24 c18 -17 23 -19 18 -6 -3 9 -11 17 -17 17 -5 0
-2 10 9 22 15 19 16 20 2 9 -10 -7 -18 -10 -18 -5 0 12 20 41 20 30 0 -5 6 -3
13 3 8 6 18 7 23 3 4 -4 3 1 -4 10 -9 11 -23 15 -43 13 -16 -2 -29 -1 -30 3 0
4 -2 15 -4 25 -2 13 1 17 10 13 8 -3 17 -2 19 3 3 4 -8 7 -23 7 -20 0 -28 -4
-26 -15 1 -9 -3 -20 -9 -24 -7 -6 -4 -7 7 -3 9 3 17 2 17 -3 0 -11 -39 -21
-44 -12 -3 4 -1 13 5 21 5 8 9 23 9 33 0 14 -5 17 -22 12 -22 -7 -23 -7 -3 8
13 10 25 12 36 6 12 -6 21 -4 29 6 9 11 9 15 1 15 -6 0 -11 -5 -11 -10 0 -7
-7 -7 -21 0 -17 10 -18 14 -7 28 12 15 11 16 -4 3 -12 -9 -18 -10 -18 -2 0 14
41 31 54 23 5 -3 6 0 3 6 -4 5 -17 8 -30 5 -12 -3 -19 -2 -15 2 4 4 3 15 -2
25 -5 10 -6 21 -2 25 4 3 7 12 7 18 1 7 7 11 15 9 9 -1 6 6 -8 17 -15 13 -18
21 -10 24 10 4 10 6 0 6 -10 1 -10 6 -2 21 7 13 7 20 1 20 -6 0 -8 7 -4 15 3
9 -2 22 -13 30 -11 8 -15 15 -11 15 4 0 3 8 -2 18 -7 13 -6 23 2 31 9 10 9 11
-3 6 -11 -4 -16 2 -18 22 -1 15 -8 31 -15 36 -8 6 -5 7 9 4 13 -3 21 1 21 10
0 8 -7 11 -17 8 -11 -3 -17 0 -17 10 0 9 6 14 13 11 10 -4 11 1 4 20 -12 32
-12 34 1 34 5 0 8 -4 5 -8 -2 -4 4 -9 15 -9 19 -2 19 -1 -1 15 -12 9 -23 32
-26 49 -4 28 -2 32 11 26 15 -5 15 -3 4 16 -8 11 -17 21 -20 21 -4 0 -10 7
-13 16 -5 13 -4 14 7 6 10 -9 14 -8 14 3 0 8 -6 15 -13 15 -7 0 -11 8 -9 20 2
11 -2 20 -8 21 -7 0 -3 4 8 9 11 5 14 9 7 9 -7 1 -10 6 -7 11 3 6 -1 10 -10
10 -9 0 -14 -4 -10 -9 3 -5 1 -12 -4 -15 -5 -4 -8 1 -7 10 1 9 10 20 19 26 9
5 17 14 17 21 0 7 -4 6 -10 -3 -8 -13 -10 -13 -10 2 0 9 -5 20 -12 24 -6 4 -8
3 -5 -4 5 -6 0 -8 -13 -5 -11 3 -20 11 -20 19 0 8 6 11 15 8 8 -4 15 -1 15 4
0 20 -23 62 -34 62 -6 1 0 8 14 16 14 8 17 13 8 10 -9 -3 -19 2 -22 10 -3 9
-10 13 -15 9 -5 -3 -12 -1 -16 4 -3 6 6 8 22 5 16 -2 23 -1 18 3 -6 5 -10 20
-10 34 1 18 -3 25 -12 22 -10 -4 -11 -9 -2 -19 7 -8 10 -17 7 -20 -3 -2 -13 7
-23 22 -9 15 -12 23 -6 20 7 -4 11 1 11 13 0 12 -4 21 -8 21 -4 0 -8 16 -8 34
0 28 3 33 13 24 22 -18 28 0 7 19 -11 10 -15 15 -10 11 18 -14 29 -8 16 7 -7
9 -8 15 -2 15 12 0 19 -17 18 -50 -1 -14 -7 -25 -13 -25 -20 0 -17 -19 5 -33
14 -9 22 -10 27 -2 3 6 3 10 -2 9 -30 -5 -33 3 -13 28 12 15 17 29 12 31 -5 1
-7 13 -5 26 4 18 0 26 -15 30 -11 4 -26 14 -34 24 -12 15 -11 16 5 3 9 -7 18
-10 18 -5 7 49 5 83 -4 77 -5 -3 -7 -1 -3 5 3 6 2 13 -4 17 -6 4 -8 10 -5 15
3 5 1 11 -5 15 -6 4 -8 11 -4 16 3 5 10 7 15 3 5 -3 6 -10 3 -16 -4 -7 -2 -8
4 -4 9 5 9 13 1 28 -9 16 -8 19 3 12 18 -12 37 -14 43 -5 2 4 -1 8 -8 9 -7 0
-29 5 -49 10 -26 7 -36 7 -31 -1 3 -6 1 -7 -5 -3 -19 12 -9 41 15 42 13 1 21
-2 18 -6 -7 -12 20 -19 35 -10 9 6 7 10 -9 15 -12 3 -19 10 -17 14 3 4 -4 8
-15 9 -42 4 -48 6 -43 13 9 15 -32 29 -46 16 -8 -7 -7 -1 3 14 15 26 15 27 -3
22 -14 -4 -20 0 -20 11 0 9 -5 16 -11 16 -5 0 -8 -4 -4 -9 3 -5 0 -13 -7 -17
-7 -4 -10 -4 -6 1 4 4 0 14 -10 22 -16 12 -16 13 1 7 17 -6 18 -5 5 17 -7 13
-19 29 -25 37 -17 18 -16 22 5 17 9 -3 5 1 -10 8 -21 10 -25 16 -17 24 9 9 6
11 -12 7 -17 -4 -20 -3 -11 4 11 7 10 11 -5 17 -17 7 -17 8 2 15 17 7 17 9 3
9 -10 1 -18 6 -18 12 0 5 6 7 13 4 6 -4 5 -1 -4 7 -9 7 -14 19 -11 27 3 9 0
11 -9 6 -11 -6 -12 -5 -1 6 6 7 12 22 12 34 0 12 -6 27 -12 35 -11 12 -10 12
3 2 13 -10 18 -10 22 2 3 7 1 18 -5 24 -8 8 -7 13 5 18 9 3 17 10 17 16 0 5
-4 7 -9 3 -5 -3 -13 0 -17 6 -4 8 -3 9 4 5 12 -7 35 28 25 38 -10 9 -11 46 -2
46 4 0 9 -5 11 -12 3 -9 6 -9 12 0 4 7 2 12 -4 12 -6 0 -8 5 -5 10 4 6 1 9 -5
8 -7 -2 -14 5 -15 14 -2 10 2 16 8 15 7 -1 11 13 10 38 -1 22 4 46 10 54 9 12
9 13 0 7 -7 -4 -13 -3 -13 3 0 5 5 13 10 16 6 4 7 11 4 17 -5 8 -1 9 12 5 17
-6 17 -6 3 5 -16 13 -14 38 5 51 8 5 6 10 -4 17 -13 8 -12 10 4 10 14 0 17 5
13 21 -3 13 -1 19 6 16 7 -3 11 -10 9 -16 -1 -7 2 -9 9 -5 9 5 6 12 -9 24 -16
14 -18 20 -9 30 10 10 9 11 -3 4 -12 -6 -11 -2 3 19 12 18 13 25 4 21 -8 -3
-14 2 -14 10 0 8 4 13 8 11 14 -9 16 21 3 40 -12 16 -12 22 1 42 14 21 14 24
0 29 -11 5 -14 15 -11 35 2 16 1 29 -3 29 -4 0 -8 7 -9 15 -1 8 -3 22 -4 30
-1 8 -5 15 -10 15 -4 0 -7 3 -7 8 1 4 0 9 -1 12 -9 25 -6 38 8 33 23 -8 8 7
-20 21 -13 7 -23 18 -23 26 0 8 -8 21 -17 28 -10 7 -18 22 -18 33 0 10 -5 19
-11 19 -5 0 -7 5 -4 10 3 6 2 10 -3 10 -5 0 -14 12 -20 26 -7 14 -8 23 -2 19
5 -3 10 -3 10 0 0 9 -23 31 -40 38 -11 4 -11 6 -2 6 10 1 10 4 -2 16 -8 8 -19
15 -24 15 -6 0 -8 9 -5 20 3 12 0 20 -6 20 -7 0 -9 -5 -5 -12 4 -7 3 -8 -4 -4
-6 4 -9 13 -5 21 3 10 -1 15 -13 15 -17 0 -16 1 2 15 13 10 14 13 3 10 -9 -3
-22 2 -30 11 -9 12 -10 15 -1 10 6 -4 12 -2 12 3 0 6 -8 11 -17 12 -10 0 -13
3 -6 5 8 4 1 17 -18 37 -20 21 -29 39 -26 53 2 15 0 21 -8 18 -7 -3 -15 2 -19
12 -4 11 -2 15 8 11 15 -6 16 17 1 30 -4 4 -5 2 -1 -4 14 -24 -2 -13 -19 13
-9 15 -12 23 -6 20 12 -8 13 7 1 44 -4 14 -8 19 -9 13 -2 -24 -16 -13 -16 12
0 23 1 24 25 8 20 -14 23 -14 13 -1 -7 8 -9 19 -5 23 4 5 1 5 -5 1 -7 -4 -13
-3 -13 3 0 6 -7 8 -15 5 -11 -4 -14 1 -12 23 1 16 -3 27 -9 26 -6 -1 -11 5
-11 12 0 11 4 12 14 4 9 -9 13 -8 13 0 0 6 -7 14 -15 17 -8 4 -15 10 -15 16 0
5 4 7 8 4 4 -2 9 4 9 15 1 10 -3 19 -8 19 -6 0 -8 -4 -5 -8 3 -5 -1 -9 -9 -9
-13 0 -13 3 0 17 13 14 13 19 1 35 -8 11 -12 25 -9 32 3 7 0 13 -5 13 -13 0
-43 60 -36 71 3 5 -2 9 -10 9 -9 0 -16 6 -16 13 0 8 -4 7 -10 -3 -5 -8 -10
-10 -10 -4 0 5 4 14 10 20 6 6 5 15 -1 24 -9 12 -10 11 -5 -5 6 -19 5 -19 -8
-2 -8 10 -12 27 -9 37 4 14 0 20 -11 20 -9 0 -16 5 -16 11 0 5 6 7 13 3 6 -4
3 2 -7 14 -21 24 -36 31 -17 8 9 -11 9 -16 -1 -22 -7 -4 -10 -3 -5 1 4 5 0 16
-9 26 -12 13 -12 19 -3 25 8 5 10 3 4 -6 -6 -9 -4 -11 5 -5 10 6 9 11 -4 21
-11 7 -15 18 -10 25 5 8 3 10 -6 4 -10 -6 -12 -4 -7 9 6 14 3 16 -14 11 -17
-6 -20 -4 -13 6 14 22 13 37 -1 49 -11 9 -13 7 -9 -14 3 -20 0 -26 -13 -26
-11 0 -14 3 -7 8 6 4 10 16 8 26 -1 11 5 26 14 33 15 12 15 12 -3 6 -18 -6
-19 -5 -5 13 11 15 11 16 0 7 -18 -17 -38 -17 -22 -1 21 21 13 32 -9 12 -18
-16 -19 -19 -4 -30 14 -11 14 -12 -2 -18 -10 -4 -14 -4 -10 0 4 4 2 13 -4 21
-6 7 -8 13 -5 13 4 0 0 7 -8 16 -9 8 -16 21 -16 27 0 7 4 7 9 -2 13 -20 33
-21 49 -5 8 9 9 14 2 14 -6 0 -9 4 -6 9 10 15 -33 61 -52 55 -15 -5 -15 -4 1
6 9 6 22 8 29 4 7 -4 8 -3 4 5 -4 6 -16 9 -27 6 -13 -5 -19 -2 -19 10 0 9 4
14 8 11 4 -2 9 4 9 15 1 10 -3 19 -8 19 -6 0 -8 -3 -5 -8 2 -4 -2 -16 -10 -27
-8 -10 -14 -14 -14 -8 0 7 4 14 9 17 4 3 6 17 3 31 -4 22 -7 24 -21 13 -9 -7
-13 -8 -9 -4 4 5 2 16 -5 24 -10 13 -9 14 3 8 8 -4 4 1 -10 12 -28 24 -40 21
-19 -4 13 -16 12 -16 -8 -4 -11 8 -19 20 -16 27 5 13 -6 17 -42 13 -19 -1 -19
-1 2 15 l22 15 -21 36 c-16 28 -23 32 -35 23 -11 -10 -11 -14 -1 -20 6 -4 16
-5 20 -3 4 3 8 1 8 -4 0 -5 -9 -12 -20 -15 -11 -3 -18 -1 -15 3 3 5 1 11 -4
15 -6 3 -7 13 -4 23 6 15 5 15 -10 3 -15 -12 -17 -12 -11 3 3 9 15 16 27 16
20 0 20 0 -1 18 -16 14 -18 22 -10 30 9 9 9 12 1 12 -7 0 -11 9 -10 20 1 23
17 28 17 5 0 -8 5 -15 10 -15 7 0 7 -6 0 -19 -6 -11 -6 -22 -1 -25 5 -3 11 6
14 19 2 14 0 28 -5 31 -4 3 -6 9 -3 13 2 5 -7 13 -21 20 -19 8 -23 8 -18 0 4
-7 1 -10 -7 -7 -8 3 -13 12 -11 21 3 20 -15 32 -31 20 -10 -8 -32 -10 -39 -3
-10 7 -37 6 -32 -1 3 -5 10 -7 15 -4 5 4 9 1 9 -4 0 -16 -16 -13 -30 4 -7 9
-15 13 -18 11 -2 -3 -13 -1 -24 5 -13 7 -17 16 -13 30 7 22 2 23 -26 9 -15 -8
-19 -8 -17 2 2 8 -5 12 -19 10 -12 -2 -24 1 -27 6 -6 11 34 10 52 -1 17 -11
15 -2 -4 17 -8 9 -21 13 -27 9 -18 -11 -47 -11 -47 0 0 5 -7 4 -15 -3 -9 -7
-19 -9 -23 -5 -4 4 -1 10 6 12 6 3 12 9 12 15 0 6 -8 4 -18 -5 -21 -19 -59
-15 -77 9 -8 12 -14 14 -19 6 -5 -9 -12 -9 -26 0 -17 11 -17 13 -2 24 16 12
16 13 -1 10 -10 -1 -23 -9 -28 -17 -7 -12 -9 -12 -10 1 -1 8 -1 18 0 22 0 4
-6 5 -14 2 -8 -4 -15 -11 -15 -18 0 -6 -5 -4 -10 4 -6 10 -10 11 -10 3 0 -7
-7 -13 -15 -13 -8 0 -15 5 -15 11 0 5 5 7 11 4 6 -4 5 2 -3 14 -14 23 -24 26
-33 12 -6 -11 -52 -8 -63 4 -4 4 -2 5 4 2 7 -4 15 0 18 9 9 24 7 29 -6 16 -7
-7 -17 -12 -22 -12 -6 0 -5 4 3 9 7 5 10 14 6 20 -5 9 -10 9 -21 0 -7 -6 -11
-16 -7 -23 4 -6 -1 -5 -10 3 -14 11 -17 11 -17 0 0 -11 -2 -11 -10 1 -16 25
-11 40 15 50 14 5 25 11 25 12 0 3 -73 1 -80 -2 -3 -1 -9 -2 -13 -1 -5 1 -6
-3 -2 -9 3 -6 11 -8 16 -5 15 10 10 -2 -8 -16 -11 -10 -14 -10 -9 -1 4 6 4 12
-1 12 -4 0 -14 14 -22 31 -12 26 -15 29 -23 15 -5 -9 -14 -16 -20 -16 -7 0 -7
4 1 14 9 11 7 12 -13 9 -13 -3 -27 0 -30 6 -13 20 -27 12 -16 -8 10 -20 -2
-24 -27 -8 -13 8 -14 7 -17 -12 0 -5 -5 -13 -10 -18 -5 -4 -6 -3 -2 4 3 6 2
14 -4 18 -7 4 -7 12 0 25 14 27 12 34 -5 20 -8 -7 -15 -9 -15 -4 0 18 15 30
38 31 19 2 21 -1 12 -13 -7 -8 -9 -14 -5 -14 4 0 2 -7 -5 -15 -11 -13 -7 -13
17 1 29 17 30 18 12 37 -9 11 -22 16 -28 12 -6 -3 -11 -2 -11 3 0 5 -7 9 -15
9 -8 0 -12 -4 -10 -8 3 -4 -1 -9 -9 -12 -7 -3 -13 -18 -14 -34 0 -15 0 -31 -1
-36 -1 -4 -14 -1 -31 8 -16 8 -32 14 -34 13 -2 -2 -8 0 -12 5 -4 4 5 6 19 5
15 -1 27 -6 27 -10 0 -4 5 -8 12 -8 6 0 8 3 5 7 -4 3 -2 12 4 19 8 9 5 11 -11
7 -16 -4 -19 -2 -14 11 3 9 1 16 -6 16 -6 0 -9 -4 -5 -9 7 -13 -12 -24 -26
-16 -7 5 -4 14 7 26 16 18 19 18 41 4 21 -14 24 -14 30 0 3 9 0 22 -7 28 -10
9 -14 9 -17 0 -4 -10 -7 -10 -18 0 -7 7 -11 15 -9 19 6 9 -23 4 -33 -6 -4 -4
-2 -6 6 -4 7 2 16 -3 19 -11 3 -10 0 -12 -11 -8 -9 3 -19 2 -23 -4 -4 -6 -11
-6 -20 2 -15 12 -9 33 7 24 5 -4 9 -2 9 3 0 5 -13 9 -28 9 -16 -1 -29 -7 -29
-14z m6 -85 c1 6 5 12 11 12 5 0 8 -6 6 -12 -1 -7 -1 -10 1 -5 3 4 9 5 14 2 5
-4 6 0 3 8 -3 8 1 14 9 14 9 0 14 -9 13 -21 -1 -19 -7 -21 -61 -22 -36 -1 -59
-5 -58 -11 4 -17 -34 -22 -54 -7 -10 7 -13 14 -7 14 6 0 21 9 33 19 18 15 28
18 47 11 13 -5 23 -6 23 -2 -3 20 3 25 11 7 5 -11 9 -14 9 -7z m-111 -75 c-11
-14 -29 -13 -41 2 -4 6 -5 -1 -2 -15 5 -21 1 -27 -22 -36 -22 -8 -32 -8 -42 3
-6 7 -16 11 -22 8 -5 -4 -9 -2 -9 3 0 16 33 24 43 10 6 -9 7 -8 3 5 -5 14 1
22 25 30 21 8 29 17 25 29 -3 15 0 15 24 -5 19 -15 25 -26 18 -34z m73 30 c13
-16 12 -17 -3 -4 -17 13 -22 21 -14 21 2 0 10 -8 17 -17z m377 -8 c-3 -3 -9 2
-12 12 -6 14 -5 15 5 6 7 -7 10 -15 7 -18z m82 -1 c0 -8 -19 -13 -24 -6 -3 5
1 9 9 9 8 0 15 -2 15 -3z m-490 -16 c0 -10 2 -10 8 -1 4 7 13 9 21 4 13 -8 -6
-18 -54 -27 -19 -3 -19 -3 -3 10 10 7 15 16 11 19 -3 4 -1 7 5 7 7 0 12 -6 12
-12z m-277 -61 c3 -8 0 -14 -7 -14 -7 0 -13 6 -13 14 0 7 4 13 8 13 4 0 9 -6
12 -13z m909 -24 c-6 -2 -10 -8 -8 -12 3 -4 -1 -8 -9 -8 -8 0 -15 4 -15 8 0 8
19 17 35 17 6 0 4 -2 -3 -5z m558 -173 c0 -5 -4 -10 -10 -10 -5 0 -10 -5 -10
-11 0 -5 3 -8 8 -5 4 2 15 -2 25 -9 16 -11 15 -12 -7 -12 -14 0 -27 6 -30 14
-4 9 -13 13 -22 9 -10 -4 -14 -1 -12 6 3 7 10 13 16 13 5 0 14 3 18 8 11 10
24 9 24 -3z m-85 -40 c3 -6 -1 -7 -9 -4 -18 7 -21 14 -7 14 6 0 13 -4 16 -10z
m-1743 -80 c-10 -12 -18 -16 -21 -9 -2 6 3 15 10 20 24 15 29 10 11 -11z
m1835 -29 c0 -11 -5 -18 -9 -15 -4 3 -5 11 -1 19 7 21 12 19 10 -4z m-1858 -8
c7 -15 4 -18 -17 -20 -25 -1 -26 0 -7 13 10 8 14 14 8 14 -12 0 -26 -17 -29
-35 -1 -5 -5 -19 -9 -30 -6 -17 -3 -16 15 5 l22 25 -15 -25 c-8 -14 -22 -24
-31 -22 -9 2 -16 -2 -16 -8 0 -5 -4 -10 -9 -10 -5 0 -7 15 -4 33 2 17 5 41 4
52 0 16 2 17 9 5 8 -13 12 -13 27 3 9 9 23 17 30 17 7 0 17 -8 22 -17z m1955
-42 c3 -5 -1 -11 -9 -15 -8 -3 -17 0 -21 6 -4 7 -3 8 4 4 7 -4 12 -2 12 3 0
13 7 14 14 2z m9 -91 c10 -12 9 -12 -4 -2 -10 8 -19 8 -26 1 -6 -6 -10 -5 -10
5 0 17 23 15 40 -4z m57 -15 c0 -1 -8 -5 -18 -7 -11 -3 -19 0 -19 7 0 7 8 10
19 7 10 -2 18 -6 18 -7z m40 -37 c0 -4 -4 -8 -9 -8 -6 0 -12 4 -15 8 -3 5 1 9
9 9 8 0 15 -4 15 -9z m-2240 -23 c4 3 10 -2 13 -10 4 -9 1 -12 -7 -9 -8 3 -17
0 -22 -7 -4 -7 -3 -10 3 -6 6 4 17 -1 24 -11 13 -15 12 -16 -3 -3 -20 15 -24
2 -5 -18 10 -10 9 -12 -3 -9 -8 2 -14 -2 -13 -9 2 -7 -4 -10 -13 -6 -15 5 -15
7 0 15 9 5 14 14 10 20 -4 7 -10 5 -16 -3 -7 -10 -8 -8 -3 6 16 44 17 55 6 55
-7 0 -9 5 -5 11 5 8 10 6 16 -5 5 -9 13 -14 18 -11z m2209 11 c11 -14 6 -15
-27 -7 -4 1 8 21 12 21 2 0 9 -6 15 -14z m-2152 -31 c0 -8 -4 -12 -9 -9 -5 3
-6 10 -3 15 9 13 12 11 12 -6z m2193 -10 c0 -2 -6 -5 -13 -8 -8 -3 -14 1 -14
8 0 7 6 11 14 8 7 -3 13 -6 13 -8z m55 -35 c3 -6 -1 -7 -9 -4 -18 7 -21 14 -7
14 6 0 13 -4 16 -10z m15 -24 c0 -3 -4 -8 -10 -11 -5 -3 -10 -1 -10 4 0 6 5
11 10 11 6 0 10 -2 10 -4z m-2341 -19 c-2 -1 -15 -11 -29 -22 l-25 -20 19 23
c11 12 24 22 29 22 6 0 8 -1 6 -3z m-64 -26 c3 -5 1 -12 -5 -16 -5 -3 -10 1
-10 9 0 18 6 21 15 7z m2473 -163 c10 -12 10 -18 1 -24 -8 -4 -9 -3 -5 5 4 6
0 14 -8 17 -9 3 -13 10 -10 16 3 5 7 8 8 6 1 -2 7 -10 14 -20z m107 -246 c-3
-3 -11 0 -18 7 -9 10 -8 11 6 5 10 -3 15 -9 12 -12z m60 -40 c-3 -3 -11 0 -18
7 -9 10 -8 11 6 5 10 -3 15 -9 12 -12z m15 -37 c14 -19 14 -19 -2 -6 -10 7
-18 18 -18 24 0 6 1 8 3 6 1 -2 9 -13 17 -24z m-15 -15 c3 -6 -1 -7 -9 -4 -18
7 -21 14 -7 14 6 0 13 -4 16 -10z m6 -57 c13 -16 12 -17 -3 -4 -17 13 -22 21
-14 21 2 0 10 -8 17 -17z m-3065 -88 c-3 -8 -4 -15 -2 -15 3 0 12 -3 22 -7 11
-4 15 -3 11 4 -4 6 1 17 10 24 15 12 16 12 8 -1 -15 -25 -15 -42 1 -36 13 5
19 -5 15 -26 0 -5 5 -8 12 -8 6 0 4 -5 -6 -11 -13 -8 -15 -14 -7 -29 9 -17 8
-19 -7 -13 -10 3 -22 10 -28 14 -14 10 -28 9 -45 -4 -8 -7 -2 3 13 21 29 36
37 63 13 43 -12 -10 -17 -8 -25 8 -8 13 -8 22 -1 26 6 4 8 11 5 16 -4 5 -1 9
5 9 7 0 10 -7 6 -15z m101 -151 c-3 -3 -12 -4 -19 -1 -8 3 -5 6 6 6 11 1 17
-2 13 -5z m-157 -274 c13 -8 13 -10 -2 -10 -11 0 -15 -5 -12 -15 4 -10 0 -15
-10 -15 -13 0 -15 4 -7 19 6 10 7 21 4 25 -10 10 10 7 27 -4z m-20 -65 c0 -8
-4 -15 -9 -15 -13 0 -22 16 -14 24 11 11 23 6 23 -9z m-25 -25 c3 -5 1 -10 -4
-10 -6 0 -11 5 -11 10 0 6 2 10 4 10 3 0 8 -4 11 -10z m-161 -386 c3 -8 2 -12
-4 -9 -6 3 -10 10 -10 16 0 14 7 11 14 -7z m-19 -143 c3 -5 2 -12 -3 -15 -5
-3 -9 1 -9 9 0 17 3 19 12 6z m25 -31 c0 -5 -4 -10 -10 -10 -5 0 -10 5 -10 10
0 6 5 10 10 10 6 0 10 -4 10 -10z m-17 -60 c3 -11 1 -18 -4 -14 -5 3 -9 12 -9
20 0 20 7 17 13 -6z m-1142 -1317 c13 -16 12 -17 -3 -4 -17 13 -22 21 -14 21
2 0 10 -8 17 -17z m5176 -415 c-3 -8 -6 -5 -6 6 -1 11 2 17 5 13 3 -3 4 -12 1
-19z m37 -215 c3 -8 4 -19 0 -24 -3 -5 1 -9 8 -9 10 0 9 -3 -2 -10 -8 -5 -15
-21 -16 -36 -1 -25 0 -26 12 -9 8 10 14 15 15 9 0 -5 2 -18 4 -29 2 -10 -1
-25 -7 -32 -8 -10 -7 -13 3 -13 8 0 5 -6 -7 -15 -13 -11 -14 -13 -3 -9 22 7
32 -21 13 -37 -12 -10 -12 -14 3 -26 10 -8 12 -11 4 -7 -7 3 -18 0 -23 -7 -8
-12 -9 -12 -6 1 3 8 -2 22 -10 31 -14 16 -17 16 -41 2 -16 -9 -20 -10 -10 -2
20 17 13 40 -9 32 -15 -4 -15 -3 -2 6 13 9 8 15 -11 13 -3 -1 -6 5 -6 13 0 8
5 11 10 8 6 -4 8 0 4 10 -4 11 -1 17 8 17 18 0 18 4 4 33 -9 21 -9 21 5 3 8
-10 20 -15 27 -10 9 5 9 10 -2 18 -18 13 -22 53 -7 62 6 4 5 10 -3 15 -11 7
-11 9 -1 9 7 0 11 4 8 9 -4 5 3 7 13 4 11 -3 22 -12 25 -20z m-14 -258 c0 -5
-5 -3 -10 5 -5 8 -10 20 -10 25 0 6 5 3 10 -5 5 -8 10 -19 10 -25z m147 -100
c5 -4 3 -5 -4 -1 -13 7 -37 -29 -29 -43 3 -4 -1 -8 -9 -8 -8 0 -13 5 -12 11 1
6 -4 10 -10 9 -9 -2 -10 3 -2 20 10 23 50 30 66 12z m95 -308 c-15 -17 -27
-15 -27 6 -1 22 18 35 31 23 9 -8 9 -15 -4 -29z m-41 -104 c13 -16 12 -17 -3
-4 -17 13 -22 21 -14 21 2 0 10 -8 17 -17z m99 -8 c0 -2 -9 -3 -19 -2 -11 0
-18 5 -15 9 4 6 34 0 34 -7z m-70 -29 c-7 -7 -13 -7 -20 0 -6 6 -3 10 10 10
13 0 16 -4 10 -10z m-10 -20 c0 -3 -4 -8 -10 -11 -5 -3 -10 -1 -10 4 0 6 5 11
10 11 6 0 10 -2 10 -4z m33 -101 c-3 -9 -8 -14 -10 -11 -3 3 -2 9 2 15 9 16
15 13 8 -4z m-3 -1169 c0 -2 -7 -7 -16 -10 -8 -3 -12 -2 -9 4 6 10 25 14 25 6z
m-6123 -1021 c0 -8 -4 -12 -9 -9 -5 3 -6 10 -3 15 9 13 12 11 12 -6z m943 -97
c0 -4 5 -8 10 -8 7 0 7 6 0 20 -7 12 -7 20 -1 20 12 0 24 -37 16 -50 -3 -5 -2
-10 2 -10 15 0 37 -73 38 -127 1 -29 -3 -53 -7 -53 -5 0 -4 -8 1 -19 6 -10 8
-21 5 -23 -10 -10 -12 -48 -3 -48 6 0 6 -8 -1 -20 -6 -11 -7 -20 -2 -20 5 0 8
-11 6 -25 -1 -14 4 -32 13 -40 8 -8 10 -15 5 -15 -5 0 -9 -7 -9 -15 0 -8 4
-15 8 -15 5 0 6 -7 3 -15 -4 -8 1 -17 10 -21 14 -5 14 -9 4 -23 -7 -9 -8 -13
-4 -9 5 5 16 -1 23 -12 8 -11 19 -17 25 -14 7 4 8 2 4 -5 -8 -12 16 -41 33
-41 6 0 11 -7 11 -16 0 -8 3 -13 8 -11 4 2 18 -6 31 -19 22 -20 23 -24 8 -30
-9 -3 -14 -10 -11 -15 3 -5 0 -9 -6 -9 -6 0 -8 -4 -5 -10 3 -5 1 -10 -6 -10
-8 0 -8 -4 1 -15 10 -12 9 -15 -6 -15 -16 0 -17 -2 -4 -10 13 -9 13 -10 0 -10
-13 0 -13 -1 0 -11 12 -9 11 -10 -5 -6 -15 3 -21 -1 -21 -14 0 -10 5 -15 11
-11 6 4 3 0 -7 -9 -9 -9 -15 -19 -12 -22 3 -3 1 -8 -5 -12 -6 -3 -11 -1 -11 4
0 6 -5 11 -10 11 -6 0 -10 -8 -8 -17 2 -10 -2 -17 -8 -16 -6 1 -11 -5 -11 -12
0 -10 4 -12 12 -5 15 12 25 3 18 -15 -2 -8 -12 -11 -21 -7 -14 5 -15 3 -4 -10
10 -13 10 -19 -3 -32 -9 -9 -13 -21 -9 -27 5 -8 3 -9 -6 -4 -17 10 -32 -16
-18 -32 10 -13 -1 -18 -26 -14 -5 1 -6 -5 -2 -14 3 -10 2 -13 -5 -10 -12 8
-41 -14 -33 -26 5 -8 -9 -13 -28 -11 -3 1 -9 -5 -12 -14 -4 -10 -2 -13 6 -8 7
4 8 3 4 -5 -4 -6 -11 -9 -16 -6 -5 3 -11 1 -15 -5 -4 -6 -11 -7 -17 -4 -7 5
-8 2 -3 -6 6 -10 4 -12 -10 -6 -18 6 -18 6 1 -16 11 -13 12 -18 3 -10 -13 10
-19 8 -33 -7 -10 -11 -15 -25 -11 -31 5 -9 0 -8 -16 1 -21 11 -22 10 -12 -2
10 -12 9 -18 -7 -29 -10 -7 -16 -18 -13 -24 4 -6 -2 -4 -12 4 -10 8 -16 10
-12 3 4 -6 3 -14 -3 -18 -6 -4 -8 -10 -5 -15 6 -10 -5 -41 -14 -36 -3 2 -12
-2 -19 -10 -7 -8 -10 -14 -6 -14 3 0 1 -7 -6 -15 -10 -12 -10 -15 1 -16 12 0
12 -1 0 -6 -11 -5 -11 -7 0 -14 10 -6 7 -8 -11 -8 -14 1 -32 -1 -41 -5 -10 -5
-16 -2 -16 8 0 8 3 13 7 11 3 -2 12 0 20 6 12 7 9 9 -10 9 -20 0 -22 2 -10 10
18 11 25 63 7 54 -7 -3 -5 0 4 8 15 12 18 26 20 70 0 10 5 21 11 24 6 4 5 10
-3 15 -10 6 -11 9 -1 9 7 0 12 13 12 31 0 17 4 28 10 24 6 -3 10 -4 10 0 0 3
-10 10 -22 15 -17 6 -18 9 -6 9 9 1 20 6 24 13 4 7 3 8 -4 4 -7 -4 -12 -2 -12
3 0 6 6 11 13 11 8 0 7 4 -3 10 -10 6 -11 10 -2 10 6 0 12 5 12 11 0 5 -6 7
-12 3 -7 -3 1 6 17 21 17 14 25 24 19 21 -7 -3 -15 1 -18 10 -3 8 -2 12 4 9 6
-3 11 0 12 7 0 7 2 18 2 23 1 6 5 16 10 23 4 7 5 19 2 27 -3 8 -1 15 5 15 6 0
7 5 4 10 -3 6 -2 10 2 10 5 0 10 15 11 33 2 17 4 47 6 64 1 18 -3 35 -8 37 -6
2 -3 5 7 5 9 1 18 7 18 14 4 46 10 81 13 84 2 3 0 18 -4 34 -5 18 -5 27 1 24
5 -4 10 0 10 7 1 7 3 27 4 43 2 17 5 49 7 72 1 24 6 43 10 43 9 0 4 58 -6 67
-3 3 0 13 7 21 9 13 9 14 0 8 -14 -8 -18 6 -5 18 4 4 7 24 8 45 0 20 4 42 8
49 4 7 5 16 1 21 -3 5 -1 12 4 15 5 4 8 14 6 24 -1 9 3 26 10 37 6 11 11 28 9
39 -2 15 2 17 24 13 22 -4 24 -3 12 6 -19 15 -24 38 -7 35 7 -2 12 7 11 21 -1
22 0 23 13 6 7 -11 13 -22 13 -27z m-955 -226 c-3 -3 -11 0 -18 7 -9 10 -8 11
6 5 10 -3 15 -9 12 -12z m5182 -87 c0 -8 -4 -15 -9 -15 -10 0 -11 14 -1 23 9
10 10 9 10 -8z m-12 -34 c-3 -5 -1 -12 5 -16 5 -3 10 -12 10 -18 0 -7 -6 -4
-14 5 -7 10 -17 14 -22 10 -4 -4 -2 1 5 11 14 18 26 24 16 8z m17 -133 c-9 -9
-7 -15 6 -25 15 -13 14 -13 -6 -3 -19 9 -21 14 -11 26 6 8 14 14 17 14 3 0 1
-5 -6 -12z m-5202 -138 c0 -5 -2 -10 -4 -10 -3 0 -8 5 -11 10 -3 6 -1 10 4 10
6 0 11 -4 11 -10z m5220 -2 c0 -4 -4 -8 -9 -8 -6 0 -12 4 -15 8 -3 5 1 9 9 9
8 0 15 -4 15 -9z m15 -27 c3 -5 0 -13 -6 -17 -7 -4 -9 -3 -5 4 3 5 0 13 -6 15
-9 4 -10 6 -1 6 6 1 14 -3 18 -8z m-5235 -151 c0 -5 -2 -10 -4 -10 -3 0 -8 5
-11 10 -3 6 -1 10 4 10 6 0 11 -4 11 -10z m5261 -7 c13 -16 12 -17 -3 -4 -10
7 -18 15 -18 17 0 8 8 3 21 -13z m-5271 -111 c0 -5 -7 -9 -15 -9 -8 0 -12 4
-9 9 3 4 9 8 15 8 5 0 9 -4 9 -8z m0 -36 c0 -2 -7 -7 -16 -10 -8 -3 -12 -2 -9
4 6 10 25 14 25 6z m755 -46 c3 -6 -1 -7 -9 -4 -18 7 -21 14 -7 14 6 0 13 -4
16 -10z m-758 -172 c-3 -8 -6 -5 -6 6 -1 11 2 17 5 13 3 -3 4 -12 1 -19z m736
-241 c7 3 3 -3 -7 -15 -19 -22 -19 -22 0 -22 14 0 16 -2 6 -9 -11 -6 -10 -11
3 -24 9 -9 14 -21 10 -27 -4 -6 1 -7 11 -3 14 5 16 3 11 -11 -5 -14 -3 -17 8
-12 9 3 15 0 15 -10 0 -11 -6 -14 -22 -9 -20 5 -21 4 -5 -5 9 -6 22 -8 27 -5
6 3 15 -6 20 -20 6 -16 14 -23 22 -19 7 5 9 2 5 -9 -4 -11 -1 -15 14 -12 12 2
19 -2 19 -11 0 -8 5 -14 10 -14 6 0 10 -6 10 -13 0 -17 29 -18 50 -3 8 6 7 1
-4 -11 -16 -20 -17 -23 -3 -28 8 -4 14 -14 12 -23 -1 -9 4 -28 12 -42 10 -17
11 -21 2 -12 -17 15 -37 16 -21 0 9 -9 8 -16 -6 -32 -9 -11 -11 -16 -5 -12 9
5 13 -1 12 -21 -2 -50 -10 -83 -20 -78 -5 4 -6 -1 -3 -9 3 -9 1 -16 -6 -16 -6
0 -8 -5 -5 -10 4 -6 11 -7 17 -4 7 4 7 0 -1 -13 -9 -19 -12 -67 -2 -58 2 3 12
-5 22 -17 12 -13 19 -16 19 -8 0 16 11 7 14 -12 1 -7 5 -19 10 -26 4 -7 4 -12
-1 -11 -21 4 -29 -3 -28 -26 1 -14 5 -28 8 -32 4 -3 7 -15 7 -25 0 -12 5 -17
13 -13 6 4 5 1 -3 -7 -16 -14 -20 -25 -28 -73 -2 -16 -9 -35 -14 -42 -5 -7 -7
-17 -3 -23 3 -5 2 -10 -2 -10 -5 0 -8 -12 -7 -27 1 -16 -3 -34 -9 -40 -6 -9
-5 -18 4 -30 10 -11 10 -14 2 -9 -9 5 -13 0 -13 -14 0 -14 -4 -19 -12 -14 -10
6 -10 5 -1 -7 7 -9 10 -26 7 -40 -3 -13 -7 -32 -7 -41 -1 -14 -4 -15 -17 -5
-8 6 -12 7 -8 3 4 -5 2 -16 -5 -24 -7 -10 -8 -13 -1 -9 8 4 11 -2 10 -18 -1
-25 -21 -41 -31 -25 -6 9 -43 5 -54 -6 -3 -3 3 -4 13 -2 10 1 21 -3 24 -11 2
-8 0 -11 -6 -7 -5 3 -13 -1 -16 -9 -4 -12 -2 -13 13 -6 10 6 21 7 25 3 4 -3 4
2 1 13 -6 16 -5 17 4 5 7 -9 11 -10 11 -3 0 6 9 11 19 10 15 -1 17 -4 9 -14
-5 -7 -14 -10 -19 -7 -16 9 -22 -26 -8 -43 13 -15 12 -15 -8 -3 -12 8 -19 18
-16 23 4 6 -5 7 -21 3 -15 -4 -26 -2 -26 3 0 6 -7 7 -17 4 -12 -5 -14 -3 -8 7
5 8 4 11 -3 6 -5 -3 -13 0 -16 6 -4 7 -4 2 -2 -12 l5 -25 -17 23 c-14 18 -20
20 -30 10 -9 -9 -12 -7 -12 11 0 12 -4 19 -10 16 -5 -3 -10 1 -10 9 0 9 -5 16
-12 16 -6 0 -3 7 8 15 14 11 15 14 2 9 -12 -4 -16 -1 -14 13 2 10 -1 24 -7 31
-6 8 -5 12 4 12 11 0 11 2 -1 9 -8 6 -19 7 -25 3 -5 -3 -4 2 3 11 8 9 11 21 7
27 -10 17 7 11 22 -7 13 -16 13 -16 3 4 -5 12 -15 25 -20 28 -7 4 -7 13 0 25
9 17 8 18 -7 13 -17 -7 -17 -6 -1 17 9 14 21 24 27 23 6 -2 11 2 11 7 0 6 -3
10 -8 10 -4 0 -13 9 -20 21 -8 12 -9 18 -3 14 9 -5 16 8 9 18 -2 2 4 12 12 23
11 15 11 16 0 7 -8 -7 -21 -13 -29 -13 -14 0 -14 1 -1 10 13 9 13 11 0 19 -8
5 -18 7 -23 4 -5 -3 -4 4 2 16 9 16 9 21 -1 21 -6 0 -3 7 8 15 18 13 18 14 -6
9 -14 -2 -19 -2 -12 2 15 7 16 54 1 54 -7 0 -8 7 -4 18 12 30 13 47 2 60 -6 8
-6 12 3 12 9 0 10 3 1 13 -6 8 -8 16 -6 19 6 5 10 30 21 118 10 87 13 105 20
145 4 22 8 55 8 72 1 18 4 33 8 33 4 0 5 6 2 14 -3 8 0 17 5 21 6 3 9 11 5 16
-3 5 -11 6 -17 2 -8 -5 -8 -2 0 9 7 8 10 18 6 21 -3 4 -2 7 3 7 13 0 17 57 4
65 -13 8 -3 25 13 25 7 0 6 -4 -3 -10 -8 -5 -10 -10 -4 -10 16 0 24 11 17 24
-13 19 -12 40 0 55 10 12 9 13 -3 7 -8 -4 -4 2 10 14 14 13 26 17 28 11 2 -6
9 -8 15 -4z m270 -671 c4 -10 1 -13 -8 -9 -8 3 -12 9 -9 14 7 12 11 11 17 -5z
m-1009 -61 c-3 -6 -11 -12 -18 -12 -8 0 -12 6 -10 12 3 6 11 12 18 12 8 0 12
-6 10 -12z m5439 -50 c-3 -9 -8 -14 -10 -11 -3 3 -2 9 2 15 9 16 15 13 8 -4z
m57 -399 c0 -3 -4 -8 -10 -11 -5 -3 -10 -1 -10 4 0 6 5 11 10 11 6 0 10 -2 10
-4z m-10 -46 c0 -5 -2 -10 -4 -10 -3 0 -8 5 -11 10 -3 6 -1 10 4 10 6 0 11 -4
11 -10z m-4590 -86 c0 -8 -4 -12 -10 -9 -5 3 -10 10 -10 16 0 5 5 9 10 9 6 0
10 -7 10 -16z m-911 -55 c-10 -6 -11 -9 -1 -9 6 0 12 -5 12 -12 0 -27 -24 13
-26 43 -3 31 -3 31 13 9 13 -19 13 -24 2 -31z m44 -64 c-3 -9 -8 -14 -10 -11
-3 3 -2 9 2 15 9 16 15 13 8 -4z m37 -75 c0 -5 -2 -10 -4 -10 -3 0 -8 5 -11
10 -3 6 -1 10 4 10 6 0 11 -4 11 -10z m4935 -859 c-8 -14 -25 -14 -25 0 0 5 5
7 10 4 6 -3 10 -1 10 6 0 7 3 10 6 6 3 -3 3 -10 -1 -16z m-4250 -411 c3 -5 1
-10 -4 -10 -6 0 -11 5 -11 10 0 6 2 10 4 10 3 0 8 -4 11 -10z m4229 -49 c-3
-4 -9 -6 -12 -6 -4 0 -13 -4 -20 -9 -7 -4 -16 -5 -19 -2 -4 3 -1 6 6 6 7 0 10
4 7 8 -2 4 6 8 19 8 14 0 22 -2 19 -5z m-104 -95 c0 -2 -7 -7 -16 -10 -8 -3
-12 -2 -9 4 6 10 25 14 25 6z m-29 -70 c-8 -10 -9 -16 -1 -21 5 -3 10 -2 10 3
0 6 8 13 17 16 15 6 15 5 -1 -13 -10 -11 -15 -24 -12 -30 4 -5 1 -13 -5 -16
-5 -4 -8 -13 -5 -20 3 -8 -2 -11 -15 -8 -10 3 -19 10 -19 15 0 5 4 7 9 3 5 -3
12 -1 15 4 4 5 1 13 -5 17 -8 5 -9 3 -4 -6 5 -8 4 -11 -3 -6 -19 12 -26 -17
-6 -31 17 -13 17 -13 -6 -9 -14 2 -29 5 -33 5 -5 1 -1 8 7 17 9 8 13 20 10 26
-4 7 -2 8 4 4 7 -4 12 -2 12 4 0 7 7 9 16 6 10 -4 14 -2 11 6 -2 7 -9 12 -14
11 -5 -1 -10 4 -10 12 0 8 4 12 9 9 4 -3 8 0 8 5 0 6 5 11 11 11 8 0 8 -4 0
-14z m-461 -1551 c-9 -11 -9 -15 -1 -15 7 0 9 -5 5 -11 -4 -8 -10 -6 -17 6 -7
12 -5 20 4 26 20 13 23 11 9 -6z"/>
<path d="M7356 14204 c-20 -19 -20 -25 -2 -18 8 3 17 12 20 20 7 18 1 18 -18
-2z"/>
<path d="M6737 13225 c3 -8 9 -12 14 -9 12 7 11 11 -5 17 -10 4 -13 1 -9 -8z"/>
<path d="M6775 13202 c-3 -3 1 -12 8 -20 10 -13 9 -15 -5 -9 -10 3 -20 1 -24
-6 -4 -7 -4 -9 1 -5 4 4 16 3 26 -3 11 -5 19 -6 18 -2 -1 4 0 10 1 13 8 21 6
37 -6 37 -8 0 -16 -3 -19 -5z"/>
<path d="M10514 10172 c3 -6 2 -13 -4 -17 -14 -9 -6 -48 11 -53 11 -3 12 -2 1
6 -11 8 -11 10 1 15 18 7 17 49 -2 55 -8 3 -11 0 -7 -6z m13 -27 c0 -8 -4 -15
-9 -15 -10 0 -11 14 -1 23 9 10 10 9 10 -8z"/>
<path d="M10545 10070 c-3 -5 -11 -7 -18 -4 -7 2 -21 -4 -30 -14 -16 -17 -15
-19 13 -36 17 -9 31 -15 31 -12 4 17 7 26 9 29 3 4 7 47 4 47 -2 0 -5 -4 -9
-10z m-12 -40 c6 -24 3 -25 -17 -4 -9 8 -14 20 -10 25 8 13 21 3 27 -21z"/>
<path d="M10487 9996 c10 -13 22 -22 26 -19 5 3 14 -3 21 -12 11 -15 13 -15
25 -2 8 10 9 17 1 22 -5 3 -10 3 -10 0 0 -4 -13 3 -29 14 -39 28 -56 27 -34
-3z"/>
<path d="M10620 9800 c0 -5 5 -10 11 -10 5 0 7 5 4 10 -3 6 -8 10 -11 10 -2 0
-4 -4 -4 -10z"/>
<path d="M10756 9513 c-6 -14 -5 -15 5 -6 7 7 10 15 7 18 -3 3 -9 -2 -12 -12z"/>
<path d="M5575 6940 c3 -5 8 -10 11 -10 2 0 4 5 4 10 0 6 -5 10 -11 10 -5 0
-7 -4 -4 -10z"/>
<path d="M5450 4339 c0 -5 5 -7 10 -4 6 3 10 8 10 11 0 2 -4 4 -10 4 -5 0 -10
-5 -10 -11z"/>
<path d="M8345 14820 c-3 -6 1 -7 9 -4 18 7 21 14 7 14 -6 0 -13 -4 -16 -10z"/>
<path d="M8116 14798 c3 -5 10 -6 15 -3 13 9 11 12 -6 12 -8 0 -12 -4 -9 -9z"/>
<path d="M8010 14740 c0 -5 5 -10 11 -10 5 0 7 5 4 10 -3 6 -8 10 -11 10 -2 0
-4 -4 -4 -10z"/>
<path d="M8425 14739 c-4 -6 -5 -12 -2 -15 2 -3 7 2 10 11 7 17 1 20 -8 4z"/>
<path d="M8542 14724 c10 -10 20 -16 22 -13 3 3 -5 11 -17 18 -21 13 -21 12
-5 -5z"/>
<path d="M8375 14710 c3 -5 8 -10 11 -10 2 0 4 5 4 10 0 6 -5 10 -11 10 -5 0
-7 -4 -4 -10z"/>
<path d="M8593 14705 c0 -8 4 -12 9 -9 5 3 6 10 3 15 -9 13 -12 11 -12 -6z"/>
<path d="M7856 14702 c-3 -5 1 -9 9 -9 8 0 12 4 9 9 -3 4 -7 8 -9 8 -2 0 -6
-4 -9 -8z"/>
<path d="M7832 14659 c2 -8 -7 -14 -20 -15 -32 -2 -38 -11 -8 -11 29 0 53 21
36 32 -6 4 -9 1 -8 -6z"/>
<path d="M8617 14663 c-3 -5 5 -8 18 -8 13 0 21 3 18 8 -2 4 -10 7 -18 7 -8 0
-16 -3 -18 -7z"/>
<path d="M8580 14642 c0 -5 7 -9 15 -9 8 0 12 4 9 9 -3 4 -9 8 -15 8 -5 0 -9
-4 -9 -8z"/>
<path d="M8675 14640 c3 -5 8 -10 11 -10 2 0 4 5 4 10 0 6 -5 10 -11 10 -5 0
-7 -4 -4 -10z"/>
<path d="M8715 14620 c3 -5 8 -10 11 -10 2 0 4 5 4 10 0 6 -5 10 -11 10 -5 0
-7 -4 -4 -10z"/>
<path d="M8675 14610 c-8 -13 15 -24 27 -12 6 6 4 11 -6 15 -8 3 -18 2 -21 -3z"/>
<path d="M8755 14590 c-3 -5 -1 -10 4 -10 6 0 11 5 11 10 0 6 -2 10 -4 10 -3
0 -8 -4 -11 -10z"/>
<path d="M8855 14540 c3 -5 8 -10 11 -10 2 0 4 5 4 10 0 6 -5 10 -11 10 -5 0
-7 -4 -4 -10z"/>
<path d="M9155 14500 c3 -5 8 -10 11 -10 2 0 4 5 4 10 0 6 -5 10 -11 10 -5 0
-7 -4 -4 -10z"/>
<path d="M7551 14477 c-8 -10 -7 -14 2 -14 8 0 14 6 14 14 0 7 -1 13 -2 13 -2
0 -8 -6 -14 -13z"/>
<path d="M9196 14468 c5 -8 2 -9 -10 -5 -10 4 -15 3 -11 -3 3 -6 11 -10 17
-10 6 0 17 -8 25 -17 10 -13 10 -9 -2 15 -8 17 -18 32 -21 32 -3 0 -2 -5 2
-12z"/>
<path d="M7513 14463 c4 -3 1 -13 -6 -22 -11 -14 -10 -14 6 -2 20 15 22 31 5
31 -6 0 -8 -3 -5 -7z"/>
<path d="M9140 14441 c0 -6 4 -13 10 -16 6 -3 7 1 4 9 -7 18 -14 21 -14 7z"/>
<path d="M9167 14439 c7 -7 15 -10 18 -7 3 3 -2 9 -12 12 -14 6 -15 5 -6 -5z"/>
<path d="M7496 14403 c-6 -14 -5 -15 5 -6 7 7 10 15 7 18 -3 3 -9 -2 -12 -12z"/>
<path d="M9381 14276 c-8 -10 -9 -16 -1 -21 5 -3 10 -5 11 -3 4 18 7 38 4 38
-1 0 -8 -6 -14 -14z"/>
<path d="M7257 14214 c-3 -3 -3 -12 0 -20 4 -12 8 -12 21 -2 8 7 17 12 19 11
1 -2 3 0 4 4 0 4 -4 9 -10 11 -6 2 -11 -1 -11 -7 0 -6 -5 -11 -11 -11 -5 0 -7
5 -4 10 7 11 2 14 -8 4z"/>
<path d="M7236 14175 c4 -8 8 -15 10 -15 2 0 4 7 4 15 0 8 -4 15 -10 15 -5 0
-7 -7 -4 -15z"/>
<path d="M7277 14145 c-8 -8 -17 -12 -21 -10 -3 3 -4 2 -1 -2 3 -3 0 -12 -7
-20 -8 -10 -8 -12 3 -8 8 3 22 17 32 30 20 28 17 33 -6 10z"/>
<path d="M9540 14041 c0 -5 7 -12 16 -15 14 -5 15 -4 4 9 -14 17 -20 19 -20 6z"/>
<path d="M6875 13550 c-3 -6 1 -7 9 -4 18 7 21 14 7 14 -6 0 -13 -4 -16 -10z"/>
<path d="M9863 13275 c0 -7 6 -11 14 -8 7 3 13 6 13 8 0 2 -6 5 -13 8 -8 3
-14 -1 -14 -8z"/>
<path d="M6690 13185 c-11 -13 -10 -14 4 -9 9 3 16 10 16 15 0 13 -6 11 -20
-6z"/>
<path d="M6697 13079 c4 -13 8 -18 11 -10 2 7 -1 18 -6 23 -8 8 -9 4 -5 -13z"/>
<path d="M6767 13056 c-4 -10 -1 -13 8 -9 8 3 12 9 9 14 -7 12 -11 11 -17 -5z"/>
<path d="M10006 12933 c-6 -14 -5 -15 5 -6 7 7 10 15 7 18 -3 3 -9 -2 -12 -12z"/>
<path d="M6620 12851 c0 -5 -8 -11 -17 -13 -15 -3 -14 -5 5 -10 17 -5 22 -2
22 13 0 10 -2 19 -5 19 -3 0 -5 -4 -5 -9z"/>
<path d="M6575 12720 c3 -5 8 -10 11 -10 2 0 4 5 4 10 0 6 -5 10 -11 10 -5 0
-7 -4 -4 -10z"/>
<path d="M6553 12695 c0 -8 6 -15 13 -15 8 0 11 6 8 15 -4 8 -9 15 -13 15 -4
0 -8 -7 -8 -15z"/>
<path d="M6460 12569 c0 -5 -4 -7 -10 -4 -14 9 -12 -1 3 -13 10 -8 13 -6 14 9
1 10 0 19 -3 19 -2 0 -4 -5 -4 -11z"/>
<path d="M6410 12359 c0 -5 5 -7 10 -4 6 3 10 8 10 11 0 2 -4 4 -10 4 -5 0
-10 -5 -10 -11z"/>
<path d="M6415 12040 c-3 -5 -1 -10 4 -10 6 0 11 5 11 10 0 6 -2 10 -4 10 -3
0 -8 -4 -11 -10z"/>
<path d="M10221 11953 c-1 -6 4 -15 10 -19 8 -4 4 -13 -12 -26 l-24 -19 27 12
c16 7 26 19 25 30 -1 10 -4 16 -8 13 -4 -2 -10 2 -12 8 -4 9 -6 10 -6 1z"/>
<path d="M6465 11929 c-4 -6 -5 -12 -2 -15 2 -3 7 2 10 11 7 17 1 20 -8 4z"/>
<path d="M6439 11708 c-5 -18 -6 -38 -1 -34 7 8 12 36 6 36 -2 0 -4 -1 -5 -2z"/>
<path d="M10260 11446 c0 -2 7 -7 16 -10 8 -3 12 -2 9 4 -6 10 -25 14 -25 6z"/>
<path d="M10426 11209 c-11 -10 -14 -19 -8 -19 7 0 15 -1 19 -2 3 -2 8 7 9 20
5 26 4 26 -20 1z"/>
<path d="M6316 11162 c-3 -5 1 -9 9 -9 8 0 12 4 9 9 -3 4 -7 8 -9 8 -2 0 -6
-4 -9 -8z"/>
<path d="M6360 11140 c-9 -6 -10 -10 -3 -10 6 0 15 5 18 10 8 12 4 12 -15 0z"/>
<path d="M10430 11086 c0 -2 7 -7 16 -10 8 -3 12 -2 9 4 -6 10 -25 14 -25 6z"/>
<path d="M10456 10898 c3 -4 11 -5 19 -1 21 7 19 12 -4 10 -11 0 -18 -5 -15
-9z"/>
<path d="M5530 10889 c0 -5 5 -7 10 -4 6 3 10 8 10 11 0 2 -4 4 -10 4 -5 0
-10 -5 -10 -11z"/>
<path d="M10467 10764 c2 -7 12 -15 20 -18 12 -5 13 -4 5 7 -7 8 -10 16 -7 19
3 2 -1 5 -9 5 -8 0 -12 -6 -9 -13z"/>
<path d="M10546 10378 c3 -5 10 -6 15 -3 13 9 11 12 -6 12 -8 0 -12 -4 -9 -9z"/>
<path d="M10540 10299 c0 -4 10 -6 21 -4 32 6 34 13 4 13 -14 0 -25 -4 -25 -9z"/>
<path d="M10581 10254 c12 -15 11 -16 -11 -11 -14 4 -19 4 -12 1 6 -3 9 -10 6
-16 -4 -6 2 -6 14 1 21 11 20 41 0 41 -6 0 -4 -7 3 -16z"/>
<path d="M10595 10120 c3 -5 8 -10 11 -10 2 0 4 5 4 10 0 6 -5 10 -11 10 -5 0
-7 -4 -4 -10z"/>
<path d="M10590 10019 c0 -5 5 -7 10 -4 6 3 10 8 10 11 0 2 -4 4 -10 4 -5 0
-10 -5 -10 -11z"/>
<path d="M10605 9940 c-3 -6 1 -7 9 -4 18 7 21 14 7 14 -6 0 -13 -4 -16 -10z"/>
<path d="M10690 9788 c0 -4 5 -8 11 -8 5 0 8 -4 5 -8 -7 -11 11 -38 20 -30 3
4 3 15 -1 25 -5 10 -8 21 -7 24 0 3 -6 6 -14 6 -7 0 -14 -4 -14 -9z"/>
<path d="M10680 9751 c0 -6 4 -13 10 -16 6 -3 7 1 4 9 -7 18 -14 21 -14 7z"/>
<path d="M10635 9720 c-3 -5 -1 -10 4 -10 6 0 11 5 11 10 0 6 -2 10 -4 10 -3
0 -8 -4 -11 -10z"/>
<path d="M10744 9689 c0 -10 4 -19 8 -19 4 0 8 6 8 14 0 8 -4 17 -8 20 -4 2
-8 -4 -8 -15z"/>
<path d="M10737 9643 c4 -10 9 -11 16 -4 17 17 48 -39 33 -59 -9 -13 -9 -13 6
-2 15 12 16 16 3 36 -8 13 -12 26 -8 29 3 4 2 7 -3 8 -5 0 -19 2 -31 3 -14 2
-19 -2 -16 -11z"/>
<path d="M10705 9639 c-4 -6 -5 -12 -2 -15 2 -3 7 2 10 11 7 17 1 20 -8 4z"/>
<path d="M10747 9590 c-14 -22 -15 -30 -5 -36 7 -4 10 -3 5 1 -4 5 0 19 9 33
8 13 14 25 12 28 -2 2 -12 -10 -21 -26z"/>
<path d="M10795 9559 c-3 -4 2 -6 10 -5 21 3 28 13 10 13 -9 0 -18 -4 -20 -8z"/>
<path d="M10781 9484 c-1 -6 5 -17 12 -23 10 -8 14 -7 14 4 0 8 -4 12 -8 9 -4
-2 -10 2 -12 8 -4 8 -6 9 -6 2z"/>
<path d="M10780 9186 c0 -2 7 -7 16 -10 8 -3 12 -2 9 4 -6 10 -25 14 -25 6z"/>
<path d="M10800 9121 c0 -7 -5 -9 -12 -5 -7 5 -8 3 -3 -5 5 -9 10 -10 18 -2 6
6 8 14 4 18 -4 3 -7 1 -7 -6z"/>
<path d="M10790 9080 c0 -5 5 -10 10 -10 6 0 10 5 10 10 0 6 -4 10 -10 10 -5
0 -10 -4 -10 -10z"/>
<path d="M10750 9055 c-11 -13 -10 -14 4 -9 9 3 16 10 16 15 0 13 -6 11 -20
-6z"/>
<path d="M10773 9035 c4 -5 0 -17 -10 -27 -9 -10 -12 -18 -7 -18 5 0 15 9 21
20 10 15 10 21 0 26 -6 4 -9 3 -4 -1z"/>
<path d="M10776 8975 c-10 -19 -22 -32 -27 -30 -4 3 -6 -3 -5 -12 3 -20 21
-28 31 -14 4 7 0 8 -11 4 -13 -5 -11 2 7 30 13 19 28 33 33 30 5 -4 6 -1 2 5
-3 5 0 13 6 15 9 4 8 6 -2 6 -9 1 -24 -15 -34 -34z"/>
<path d="M10802 8938 c-15 -15 -15 -28 0 -28 6 0 8 3 5 7 -4 3 -2 12 4 20 14
16 7 17 -9 1z"/>
<path d="M10735 8879 c-4 -6 -4 -13 -1 -16 3 -4 6 -1 6 6 0 8 6 11 16 7 8 -3
12 -2 9 4 -8 13 -22 13 -30 -1z"/>
<path d="M10599 8643 c-8 -9 -9 -14 -2 -10 6 4 13 4 16 0 2 -5 2 -3 1 4 -2 6
2 14 9 17 8 3 8 5 1 5 -6 1 -18 -7 -25 -16z"/>
<path d="M10470 8501 c0 -6 4 -12 8 -15 5 -3 9 1 9 9 0 8 -4 15 -9 15 -4 0 -8
-4 -8 -9z"/>
<path d="M10556 8215 c-9 -26 -7 -32 5 -12 6 10 9 21 6 23 -2 3 -7 -2 -11 -11z"/>
<path d="M10616 8178 c3 -5 10 -6 15 -3 13 9 11 12 -6 12 -8 0 -12 -4 -9 -9z"/>
<path d="M10740 8180 c-9 -6 -10 -10 -3 -10 6 0 15 5 18 10 8 12 4 12 -15 0z"/>
<path d="M10765 8159 c-4 -6 -4 -13 -1 -16 3 -4 6 -1 6 6 0 7 5 9 12 5 7 -4 8
-3 4 4 -9 15 -13 15 -21 1z"/>
<path d="M10727 8147 c-3 -8 1 -14 9 -14 16 0 19 13 5 21 -5 3 -11 0 -14 -7z"/>
<path d="M9795 7000 c-3 -5 -1 -10 4 -10 6 0 11 5 11 10 0 6 -2 10 -4 10 -3 0
-8 -4 -11 -10z"/>
<path d="M9786 6947 c3 -8 11 -14 19 -14 20 0 19 4 -5 17 -15 8 -18 8 -14 -3z"/>
<path d="M9825 6720 c-3 -5 -1 -10 4 -10 6 0 11 5 11 10 0 6 -2 10 -4 10 -3 0
-8 -4 -11 -10z"/>
<path d="M4585 6130 c-3 -6 1 -7 9 -4 18 7 21 14 7 14 -6 0 -13 -4 -16 -10z"/>
<path d="M4575 6080 c3 -5 8 -10 11 -10 2 0 4 5 4 10 0 6 -5 10 -11 10 -5 0
-7 -4 -4 -10z"/>
<path d="M9917 5889 c7 -7 15 -10 18 -7 3 3 -2 9 -12 12 -14 6 -15 5 -6 -5z"/>
<path d="M4611 5006 c-9 -10 -8 -15 2 -19 8 -3 13 3 13 14 0 23 0 23 -15 5z"/>
<path d="M4570 5000 c0 -5 5 -10 11 -10 5 0 7 5 4 10 -3 6 -8 10 -11 10 -2 0
-4 -4 -4 -10z"/>
<path d="M4600 4965 c0 -7 30 -13 34 -7 3 4 -4 9 -15 9 -10 1 -19 0 -19 -2z"/>
<path d="M10082 4747 c10 -8 14 -18 10 -22 -4 -5 -1 -5 6 -1 17 10 15 14 -10
26 -21 10 -21 10 -6 -3z"/>
<path d="M4491 4705 c1 -19 18 -51 18 -35 0 8 -4 22 -9 30 -5 8 -9 11 -9 5z"/>
<path d="M10110 4701 c0 -6 4 -13 10 -16 6 -3 7 1 4 9 -7 18 -14 21 -14 7z"/>
<path d="M10146 4678 c3 -5 10 -6 15 -3 13 9 11 12 -6 12 -8 0 -12 -4 -9 -9z"/>
<path d="M10155 4561 c-3 -5 -2 -12 3 -15 5 -3 9 1 9 9 0 17 -3 19 -12 6z"/>
<path d="M10153 4508 c1 -15 6 -23 11 -18 4 4 4 16 -2 26 -9 16 -10 14 -9 -8z"/>
<path d="M4670 3896 c0 -2 9 -6 20 -9 11 -3 18 -1 14 4 -5 9 -34 13 -34 5z"/>
<path d="M4715 3449 c-4 -6 -5 -12 -2 -15 2 -3 7 2 10 11 7 17 1 20 -8 4z"/>
<path d="M10130 3420 c0 -5 5 -10 11 -10 5 0 7 5 4 10 -3 6 -8 10 -11 10 -2 0
-4 -4 -4 -10z"/>
<path d="M9613 3123 c0 -8 6 -9 19 -2 10 5 18 11 18 12 0 2 -8 3 -18 3 -10 0
-19 -6 -19 -13z"/>
<path d="M9647 3099 c7 -7 15 -10 18 -7 3 3 -2 9 -12 12 -14 6 -15 5 -6 -5z"/>
<path d="M9630 2920 c0 -5 5 -10 11 -10 5 0 7 5 4 10 -3 6 -8 10 -11 10 -2 0
-4 -4 -4 -10z"/>
<path d="M9600 2860 c-13 -8 -13 -10 2 -10 9 0 20 5 23 10 8 13 -5 13 -25 0z"/>
<path d="M9565 2680 c-4 -6 -10 -8 -15 -5 -4 3 -13 -1 -19 -9 -9 -10 -8 -15 3
-19 8 -3 17 1 20 9 3 9 10 13 14 10 5 -3 9 1 9 9 0 18 -3 19 -12 5z"/>
<path d="M9383 2375 c0 -7 6 -11 14 -8 7 3 13 6 13 8 0 2 -6 5 -13 8 -8 3 -14
-1 -14 -8z"/>
<path d="M9420 2381 c0 -5 7 -12 16 -15 14 -5 15 -4 4 9 -14 17 -20 19 -20 6z"/>
<path d="M9405 2320 c-3 -6 1 -7 9 -4 18 7 21 14 7 14 -6 0 -13 -4 -16 -10z"/>
<path d="M9346 2258 c3 -5 10 -6 15 -3 13 9 11 12 -6 12 -8 0 -12 -4 -9 -9z"/>
<path d="M9029 1118 c-1 -2 -2 -14 -4 -28 -1 -14 -6 -33 -10 -44 -6 -14 -4
-17 6 -14 8 3 14 11 15 19 0 8 2 16 3 19 8 17 8 41 0 46 -5 3 -9 4 -10 2z"/>
<path d="M9030 1001 c0 -6 4 -13 10 -16 6 -3 7 1 4 9 -7 18 -14 21 -14 7z"/>
<path d="M8915 700 c3 -5 8 -10 11 -10 2 0 4 5 4 10 0 6 -5 10 -11 10 -5 0 -7
-4 -4 -10z"/>
</g>
</svg>
